#N canvas 698 335 828 608 12;
#X obj 134 270 print;
#X obj 77 270 midiout;
#X obj 177 270 print;
#X msg 292 179 upload img16.txt;
#X msg 292 232 upload img20.txt;
#X msg 4 69 clear \, rect 0 0 10 10 \, fill 30 30 4 4 \, line 0 0 30 30 \, line 0 50 50 50 \, S 1 \, string 0 40 hello@world \, S 2 \, s 0 50 Hello \, xor 1 \, box 0 60 64 8 1 \, send;
#X msg 6 166 scale 1;
#X msg 6 192 scale 2;
#X msg 291 125 upload img8.txt;
#X msg 292 202 clear \, glyph 0 2 16 1 1 24 24 \, send;
#X msg 292 148 clear \, glyph 0 1 5 0 0 24 24 \, send;
#X msg 292 255 clear \, glyph 0 3 24 1 1 24 32 \, send;
#X msg 295 284 upload img34.txt;
#X msg 295 307 clear \, glyph 0 6 30 1 1 10 60 \, send;
#X msg 3 46 clear \, line 10 10 50 5 \, send;
#X msg 4 21 clear \, rect 0 0 64 127 \, send;
#X obj 115 233 oled 2;
#X msg 51 128 clear \, S 2 \, s 0 0 hello \, send;
#X obj 449 41 oled 5;
#X obj 448 67 midiout;
#X msg 277 10 clear \, s 0 0 Yoyo \, l 0 20 100 30 \, send;
#X msg 525 61 upload img16.txt;
#X msg 525 84 clear \, glyph 0 2 16 0 0 24 50 \, send;
#X msg 6 218 scale 6;
#X obj 10 533 oled 0;
#X obj 63 533 oled 1;
#X obj 114 533 oled 2;
#X obj 164 533 oled 3;
#X obj 214 533 oled 4;
#X obj 552 397 i;
#X obj 593 395 + 1;
#X obj 594 422 mod 4;
#X floatatom 547 423 5 0 0 0 - - - 0;
#X msg 565 490 0;
#X obj 588 370 bng 16 50 10 0 empty empty empty 0 -8 0 10 #fcfcfc #000000 #000000;
#X obj 620 342 bng 16 250 50 0 empty empty empty 0 -8 0 10 #fcfcfc #000000 #000000;
#X msg 644 341 stop;
#X obj 149 588 midiout;
#X obj 274 533 oled 5;
#X obj 548 455 >= 0;
#X obj 584 454 >= 1;
#X obj 618 455 >= 2;
#X obj 652 456 >= 3;
#X obj 553 539 pack f f f f f;
#X obj 656 512 + 1;
#X msg 3 438 clear \, box 0 54 15 8 \$1 \, box 16 54 15 8 \$2 \, box 32 54 15 8 \$3 \, box 48 54 15 8 \$4 \, box 0 64 15 8 \$4 \, box 16 64 15 8 \$3 \, box 32 64 15 8 \$2 \, box 48 64 15 8 \$1 \, S 4 \, s 0 0 \$5 \, send;
#X obj 452 486 dac~;
#X msg 269 563 clear \, box 8 0 15 8 \$1 \, box 24 0 15 8 \$2 \, box 40 0 15 8 \$3 \, box 56 0 15 8 \$4 \, S 6 \, s 0 16 \$5/4 \, send;
#X obj 465 443 plonk~ 900;
#X msg 6 494 clear \, box 0 0 64 8 0 \, box 56 0 8 64 0 \, box 0 56 64 8 0 \, box 0 0 8 64 0 \, send;
#X msg 119 182 context 4;
#X msg 498 172 clear \, fill 0 0 64 20 \, fill 1 25 64 20 \, send;
#X msg 5 -3 clear \, fill 0 0 64 127 \, send;
#X msg 569 225 clear \, fill 1 25 64 20 \, send;
#X msg 460 108 clear \, box 0 0 64 20 1 \, box 0 25 32 20 1 \, box 32 50 32 20 1 \, send, f 40;
#X msg 573 252 clear \, fill 0 25 32 20 \, send;
#X msg 15 310 144 10 \$1;
#X floatatom 16 287 5 0 127 0 - - - 0;
#X floatatom 31 357 5 0 50 0 - - - 0;
#X msg 31 380 clear \, rect 0 0 10 10 \, fill 30 30 4 4 \, line 0 0 30 30 \, line 0 50 50 50 \, S 1 \, string 0 40 hello@world \, S 2 \, s 0 50 Hello \, xor 1 \, box 0 60 64 8 1 \, box 10 20 \$1 20 1 \, send;
#X obj 612 368 metro 100;
#X msg 14 334 240 \, 120 \, 3 \, 115 \, 2 \, 10 \, 10 \, 20 \, 40 \, 8 \, 0 \, 247;
#X connect 3 0 16 0;
#X connect 4 0 16 0;
#X connect 5 0 16 0;
#X connect 6 0 16 0;
#X connect 6 0 18 0;
#X connect 7 0 16 0;
#X connect 7 0 18 0;
#X connect 8 0 16 0;
#X connect 9 0 16 0;
#X connect 10 0 16 0;
#X connect 11 0 16 0;
#X connect 12 0 16 0;
#X connect 13 0 16 0;
#X connect 14 0 16 0;
#X connect 15 0 16 0;
#X connect 16 0 0 0;
#X connect 16 0 1 0;
#X connect 16 1 2 0;
#X connect 17 0 16 0;
#X connect 18 0 19 0;
#X connect 20 0 18 0;
#X connect 21 0 18 0;
#X connect 22 0 18 0;
#X connect 23 0 16 0;
#X connect 23 0 18 0;
#X connect 24 0 37 0;
#X connect 25 0 37 0;
#X connect 26 0 37 0;
#X connect 27 0 37 0;
#X connect 28 0 37 0;
#X connect 29 0 30 0;
#X connect 29 0 32 0;
#X connect 30 0 31 0;
#X connect 31 0 29 1;
#X connect 32 0 39 0;
#X connect 32 0 40 0;
#X connect 32 0 41 0;
#X connect 32 0 42 0;
#X connect 32 0 44 0;
#X connect 33 0 43 0;
#X connect 33 0 43 1;
#X connect 33 0 43 2;
#X connect 33 0 43 3;
#X connect 33 0 43 4;
#X connect 34 0 29 0;
#X connect 34 0 48 0;
#X connect 35 0 60 0;
#X connect 36 0 60 0;
#X connect 38 0 37 0;
#X connect 39 0 43 0;
#X connect 40 0 43 1;
#X connect 41 0 43 2;
#X connect 42 0 43 3;
#X connect 43 0 47 0;
#X connect 43 0 45 0;
#X connect 44 0 43 4;
#X connect 45 0 28 0;
#X connect 45 0 26 0;
#X connect 45 0 24 0;
#X connect 45 0 25 0;
#X connect 45 0 27 0;
#X connect 47 0 38 0;
#X connect 48 0 46 0;
#X connect 48 0 46 1;
#X connect 49 0 24 0;
#X connect 50 0 16 0;
#X connect 51 0 18 0;
#X connect 51 0 16 0;
#X connect 52 0 16 0;
#X connect 53 0 18 0;
#X connect 54 0 16 0;
#X connect 54 0 18 0;
#X connect 55 0 16 0;
#X connect 56 0 1 0;
#X connect 57 0 56 0;
#X connect 58 0 59 0;
#X connect 59 0 16 0;
#X connect 60 0 34 0;
#X connect 61 0 1 0;
