#N canvas 1167 650 450 300 12;
#X obj 11 197 print midi;
#X obj 92 197 print info;
#X msg 11 128 start \, rect 0 0 20 25 \, end;
#X msg 24 98 start \, fill 0 0 20 25 \, end;
#X msg 43 70 start \, box 0 0 20 25 100 \, end;
#X msg 60 42 start \, line 0 0 20 25 \, end;
#X msg 79 14 start \, string 1 2 hello \, end;
#X obj 9 222 midiout;
#X msg 227 128 start \, string 1 2 hello world \, end;
#X obj 11 164 oled 0;
#X connect 2 0 9 0;
#X connect 3 0 9 0;
#X connect 4 0 9 0;
#X connect 5 0 9 0;
#X connect 6 0 9 0;
#X connect 8 0 9 0;
#X connect 9 0 0 0;
#X connect 9 0 7 0;
#X connect 9 1 1 0;
