#N canvas 64 661 527 300 12;
#X obj 11 228 print midi;
#X obj 92 228 print info;
#X msg 11 159 start \, rect 0 0 20 25 \, end;
#X msg 24 129 start \, fill 0 0 20 25 \, end;
#X msg 43 101 start \, box 0 0 20 25 100 \, end;
#X msg 60 73 start \, line 0 0 20 25 \, end;
#X msg 79 45 start \, string 1 2 hello \, end;
#X obj 9 253 midiout;
#X msg 98 17 ( \, string 1 2 hello world \, );
#X msg 285 161 ( \, rect 0 0 20 30 \, link 2 \, );
#X msg 287 133 change 0 \$1;
#X floatatom 286 102 5 0 0 0 - - - 0;
#X obj 9 194 oled 0;
#X connect 2 0 12 0;
#X connect 3 0 12 0;
#X connect 4 0 12 0;
#X connect 5 0 12 0;
#X connect 6 0 12 0;
#X connect 8 0 12 0;
#X connect 9 0 12 0;
#X connect 10 0 12 0;
#X connect 11 0 10 0;
#X connect 12 0 0 0;
#X connect 12 0 7 0;
#X connect 12 1 1 0;
