#N canvas 283 25 1157 756 12;
#X msg 231 177 deactivate;
#X msg 231 152 activate;
#X floatatom 91 238 5 0 0 0 - - - 0;
#X obj 144 598 dac~;
#X obj 139 416 adc~;
#X obj 247 -41 notein;
#X obj 239 -11 pack f f;
#X obj 146 555 *~ 1;
#X msg 271 222 clean;
#X msg 17 -33 \; pd dsp 1;
#X obj 16 -57 loadbang;
#X text 30 154 Global QuanTick Len;
#X msg 383 176 deactivate;
#X msg 383 151 activate;
#X obj 217 501 *~ 1;
#X obj 345 500 *~ 1;
#X obj 329 410 s QT;
#X obj 81 175 r QT;
#X msg 420 224 clean;
#X msg 539 183 deactivate;
#X msg 539 158 activate;
#X msg 575 229 clean;
#X obj 867 478 plonk~ 2000;
#X floatatom 204 388 5 0 0 0 - - - 0;
#X floatatom 229 409 5 0 0 0 - - - 0;
#X floatatom 256 389 5 0 0 0 - - - 0;
#X floatatom 279 411 5 0 0 0 - - - 0;
#X obj 821 60 bng 19 250 50 0 empty empty empty 0 -10 0 12 #fcfcfc #000000 #000000;
#X obj 235 323 bank~ 1;
#X obj 389 322 bank~ 2, f 8;
#X obj 547 315 bank~ 3, f 8;
#X obj 144 475 +~;
#X msg 855 258 debug_info;
#X msg 589 208 delete;
#X msg 432 198 delete;
#X msg 289 197 delete;
#X obj 849 111 s QT;
#X msg 850 86 0;
#X obj 501 504 *~ 1;
#X floatatom 395 437 5 0 0 0 - - - 0;
#X floatatom 547 434 5 0 0 0 - - - 0;
#X obj 908 418 ticker;
#X obj 886 364 r QT;
#X obj 880 421 bng 19 50 50 0 empty empty empty 0 -10 0 12 #fcfcfc #000000 #000000;
#X msg 925 364 reset;
#X msg 886 391 \$1 \, start \, div 1;
#X obj 878 451 spigot;
#X obj 935 446 tgl 19 0 empty empty empty 0 -10 0 12 #fcfcfc #000000 #000000 0 1;
#X msg 696 179 deactivate;
#X msg 696 154 activate;
#X msg 732 225 clean;
#X msg 746 204 delete;
#X floatatom 713 434 5 0 0 0 - - - 0;
#X obj 671 503 *~ 1;
#X obj 866 504 *~ 0.7;
#X obj 10 595 writesf~;
#X msg 12 541 open sesh.wav;
#X msg 31 565 start;
#X msg 80 566 stop;
#X obj 704 311 bank~ 4, f 8;
#X floatatom 253 441 5 0 0 0 - - - 0;
#X obj 577 91 t b b;
#X obj 577 69 loadbang;
#X obj 577 46 mapper 39;
#X obj 240 45 mapper 35 36 37 38;
#X obj 378 46 mapper 40 41 42 43;
#X obj 825 27 mapper 44;
#X obj 759 861 midiout;
#X obj 766 798 oled 5;
#X msg 749 691 clear \, rect 0 0 127 64 \, S 3 \, string 18 0 MOTIF \, S 1 \, string 45 30 MINIM \, string 39 54 P/V/D/1 \, send;
#X obj 748 670 loadbang;
#X obj 360 1746 oled 0;
#X obj 410 1746 oled 1;
#X obj 460 1746 oled 2;
#X obj 511 1746 oled 3;
#X obj 691 863 oled 4;
#X obj 819 669 del 1000;
#X obj 919 601 * 64;
#X obj 917 626 / 44100;
#X floatatom 919 574 5 0 0 0 - - - 0;
#X floatatom 1000 601 5 0 0 0 - - - 0;
#X floatatom 1039 628 5 0 0 0 - - - 0;
#X obj 1011 627 /;
#X msg 976 627 60;
#X obj 679 792 pack f f;
#X obj 698 750 t b f;
#X msg 636 821 clear \, xor 1 \, S 2 \, box 0 0 64 64 \$1 \, s 15 10 DEL \, s 15 26 ALL \, box 0 64 64 64 \$2 \, s 1 90 SHIFT \, send;
#X msg 643 770 1;
#X obj 632 747 del 1000;
#X msg 642 793 0;
#X obj 631 723 bang;
#X obj 766 578 env~;
#X obj 761 604 snapshot~;
#X obj 398 679 pack f f f f f f;
#X obj 666 723 loadbang;
#X floatatom 771 633 5 0 0 0 - - - 0;
#X obj 833 577 loadbang;
#X obj 813 632 / 100;
#X msg 773 731 clear \, S 1 \, string 40 0 \$2 BPM \, box 0 20 30 30 0 \, box 32 20 30 30 0 \, box 64 20 30 30 0 \, box 96 20 30 30 0 \, S 3 \, s 0 20 \$3 \, s 32 20 \$4 \, s 64 20 \$5 \, s 96 20 \$6 \, xor 0 \, box 0 59 127 3 0 \, box 0 59 \$1 3 1 \, send;
#X obj 859 632 * 127;
#X obj 808 576 bng 19 250 50 0 empty empty empty 0 -10 0 12 #fcfcfc #000000 #000000;
#X obj 834 601 metro 50;
#X obj 213 361 unpack f f f f f f;
#X floatatom 306 389 5 0 0 0 - - - 0;
#X obj 510 402 s QT;
#X floatatom 385 380 5 0 0 0 - - - 0;
#X floatatom 410 401 5 0 0 0 - - - 0;
#X floatatom 437 381 5 0 0 0 - - - 0;
#X floatatom 460 403 5 0 0 0 - - - 0;
#X obj 386 352 unpack f f f f f f;
#X floatatom 487 381 5 0 0 0 - - - 0;
#X obj 675 405 s QT;
#X floatatom 550 383 5 0 0 0 - - - 0;
#X floatatom 575 404 5 0 0 0 - - - 0;
#X floatatom 602 384 5 0 0 0 - - - 0;
#X floatatom 625 406 5 0 0 0 - - - 0;
#X obj 551 355 unpack f f f f f f;
#X floatatom 652 384 5 0 0 0 - - - 0;
#X obj 835 408 s QT;
#X floatatom 710 386 5 0 0 0 - - - 0;
#X floatatom 735 407 5 0 0 0 - - - 0;
#X floatatom 762 387 5 0 0 0 - - - 0;
#X floatatom 785 409 5 0 0 0 - - - 0;
#X obj 711 358 unpack f f f f f f;
#X floatatom 812 387 5 0 0 0 - - - 0;
#X obj 320 577 /;
#X floatatom 321 634 5 0 0 0 - - - 0;
#X obj 363 576 /;
#X floatatom 364 633 5 0 0 0 - - - 0;
#X obj 402 575 /;
#X floatatom 405 633 5 0 0 0 - - - 0;
#X obj 444 576 /;
#X floatatom 445 633 5 0 0 0 - - - 0;
#X obj 318 607 i;
#X obj 363 604 i;
#X obj 404 603 i;
#X obj 445 606 i;
#X obj -7 1445 sel -1 0 1 2 3;
#X msg 914 918 upload status_icons.txt;
#X obj 918 942 oled 5;
#X obj 914 893 loadbang;
#X obj 917 969 midiout;
#X obj 978 969 print;
#X msg -1 1469 0;
#X obj 1 1536 t b f;
#X obj 109 1540 t b f;
#X msg 15 1492 7;
#X msg 30 1513 14;
#X msg 48 1537 21;
#X obj 2 1569 pack f f f f f f f;
#X obj 107 1444 sel -1 0 1 2 3;
#X msg 107 1468 0;
#X msg 127 1491 7;
#X msg 142 1512 14;
#X msg 160 1536 21;
#X obj 232 1374 sel -1 0 1 2 3;
#X msg 231 1400 0;
#X obj 240 1465 t b f;
#X obj 348 1469 t b f;
#X msg 254 1421 7;
#X msg 269 1442 14;
#X msg 287 1466 21;
#X obj 239 1503 pack f f f f f f f;
#X obj 346 1373 sel -1 0 1 2 3;
#X msg 346 1397 0;
#X msg 366 1420 7;
#X msg 381 1441 14;
#X msg 399 1465 21;
#X floatatom 264 471 5 0 0 0 - - - 0;
#X floatatom 408 464 5 0 0 0 - - - 0;
#X floatatom 565 458 5 0 0 0 - - - 0;
#X floatatom 728 457 5 0 0 0 - - - 0;
#X obj 2 1322 snapshot~;
#X floatatom 0 1350 5 0 0 0 - - - 0;
#X obj 181 1141 bng 19 250 50 0 empty empty empty 0 -10 0 12 #fcfcfc #000000 #000000;
#X obj 173 1118 loadbang;
#X obj -5 1385 >= 0.01;
#X obj 15 1406 >= 0.25;
#X obj 51 1385 >= 0.5;
#X obj 73 1405 >= 0.75;
#X obj 264 1262 snapshot~;
#X floatatom 262 1290 5 0 0 0 - - - 0;
#X obj 265 1322 >= 0.01;
#X obj 285 1343 >= 0.25;
#X obj 321 1322 >= 0.5;
#X obj 343 1342 >= 0.75;
#X obj 167 1167 metro 100;
#X msg 236 1527 clear \, box 0 0 15 8 \$1 \, box 16 0 15 8 \$2 \, box 32 0 15 8 \$3 \, box 48 0 15 8 \$4 \, S 3 \, glyph \$7 1 28 0 64 7 9 \, glyph \$6 1 21 44 64 7 9 \, s 24 68 > \, send;
#X obj 451 1314 sel -1 0 1 2 3;
#X msg 457 1338 0;
#X obj 459 1405 t b f;
#X obj 567 1409 t b f;
#X msg 473 1361 7;
#X msg 488 1382 14;
#X msg 506 1406 21;
#X obj 458 1443 pack f f f f f f f;
#X obj 565 1313 sel -1 0 1 2 3;
#X msg 565 1337 0;
#X msg 585 1360 7;
#X msg 600 1381 14;
#X msg 618 1405 21;
#X obj 483 1202 snapshot~;
#X floatatom 481 1230 5 0 0 0 - - - 0;
#X obj 484 1262 >= 0.01;
#X obj 504 1283 >= 0.25;
#X obj 540 1262 >= 0.5;
#X obj 562 1282 >= 0.75;
#X msg 455 1467 clear \, box 0 0 15 8 \$1 \, box 16 0 15 8 \$2 \, box 32 0 15 8 \$3 \, box 48 0 15 8 \$4 \, S 3 \, glyph \$7 1 28 0 64 7 9 \, glyph \$6 1 21 44 64 7 9 \, s 24 68 > \, send;
#X obj 672 1252 sel -1 0 1 2 3;
#X msg 678 1276 0;
#X obj 680 1343 t b f;
#X obj 788 1347 t b f;
#X msg 694 1299 7;
#X msg 709 1320 14;
#X msg 727 1344 21;
#X obj 679 1381 pack f f f f f f f;
#X obj 786 1251 sel -1 0 1 2 3;
#X msg 786 1275 0;
#X msg 806 1298 7;
#X msg 821 1319 14;
#X msg 839 1343 21;
#X obj 704 1140 snapshot~;
#X floatatom 702 1168 5 0 0 0 - - - 0;
#X obj 705 1200 >= 0.01;
#X obj 725 1221 >= 0.25;
#X obj 761 1200 >= 0.5;
#X obj 783 1220 >= 0.75;
#X msg 676 1405 clear \, box 0 0 15 8 \$1 \, box 16 0 15 8 \$2 \, box 32 0 15 8 \$3 \, box 48 0 15 8 \$4 \, S 3 \, glyph \$7 1 28 0 64 7 9 \, glyph \$6 1 21 44 64 7 9 \, s 24 68 > \, send;
#X msg -1 1593 clear \, box 0 0 15 8 \$1 \, box 16 0 15 8 \$2 \, box 32 0 15 8 \$3 \, box 48 0 15 8 \$4 \, S 3 \, glyph \$7 1 28 0 64 7 9 \, glyph \$6 1 21 44 64 7 9 \, s 24 68 > \, send;
#X connect 0 0 28 0;
#X connect 1 0 28 0;
#X connect 2 0 28 3;
#X connect 2 0 29 3;
#X connect 2 0 30 3;
#X connect 2 0 59 3;
#X connect 2 0 79 0;
#X connect 2 0 125 1;
#X connect 2 0 127 1;
#X connect 2 0 129 1;
#X connect 2 0 131 1;
#X connect 4 0 31 0;
#X connect 4 0 91 0;
#X connect 4 1 31 1;
#X connect 5 0 6 0;
#X connect 5 1 6 1;
#X connect 6 0 63 0;
#X connect 6 0 64 0;
#X connect 6 0 65 0;
#X connect 6 0 66 0;
#X connect 7 0 3 0;
#X connect 7 0 3 1;
#X connect 7 0 55 0;
#X connect 8 0 28 0;
#X connect 10 0 9 0;
#X connect 12 0 29 0;
#X connect 13 0 29 0;
#X connect 14 0 7 0;
#X connect 15 0 7 0;
#X connect 17 0 2 0;
#X connect 18 0 29 0;
#X connect 19 0 30 0;
#X connect 20 0 30 0;
#X connect 21 0 30 0;
#X connect 22 0 54 0;
#X connect 25 0 150 0;
#X connect 26 0 137 0;
#X connect 27 0 8 0;
#X connect 27 0 18 0;
#X connect 27 0 21 0;
#X connect 27 0 37 0;
#X connect 27 0 44 0;
#X connect 27 0 50 0;
#X connect 27 0 90 0;
#X connect 28 0 14 0;
#X connect 28 1 168 0;
#X connect 28 2 60 0;
#X connect 28 3 102 0;
#X connect 29 0 15 0;
#X connect 29 1 169 0;
#X connect 29 2 39 0;
#X connect 29 3 109 0;
#X connect 30 0 38 0;
#X connect 30 1 170 0;
#X connect 30 2 40 0;
#X connect 30 3 116 0;
#X connect 31 0 28 0;
#X connect 31 0 29 0;
#X connect 31 0 30 0;
#X connect 31 0 59 0;
#X connect 32 0 28 0;
#X connect 32 0 29 0;
#X connect 32 0 30 0;
#X connect 32 0 41 0;
#X connect 32 0 59 0;
#X connect 33 0 30 0;
#X connect 34 0 29 0;
#X connect 35 0 28 0;
#X connect 37 0 36 0;
#X connect 38 0 7 0;
#X connect 41 0 43 0;
#X connect 42 0 45 0;
#X connect 43 0 46 0;
#X connect 44 0 41 0;
#X connect 45 0 41 0;
#X connect 46 0 22 0;
#X connect 47 0 46 1;
#X connect 48 0 59 0;
#X connect 49 0 59 0;
#X connect 50 0 59 0;
#X connect 51 0 59 0;
#X connect 53 0 7 0;
#X connect 54 0 7 0;
#X connect 56 0 55 0;
#X connect 57 0 55 0;
#X connect 58 0 55 0;
#X connect 59 0 53 0;
#X connect 59 1 171 0;
#X connect 59 2 52 0;
#X connect 59 3 123 0;
#X connect 60 0 85 0;
#X connect 61 0 27 0;
#X connect 61 1 49 0;
#X connect 61 1 20 0;
#X connect 61 1 13 0;
#X connect 61 1 1 0;
#X connect 62 0 61 0;
#X connect 63 0 30 2;
#X connect 63 0 29 2;
#X connect 63 0 28 2;
#X connect 63 0 59 2;
#X connect 64 0 28 1;
#X connect 64 1 29 1;
#X connect 64 2 30 1;
#X connect 64 3 59 1;
#X connect 65 0 35 0;
#X connect 65 1 34 0;
#X connect 65 2 33 0;
#X connect 65 3 51 0;
#X connect 66 0 27 0;
#X connect 68 0 67 0;
#X connect 69 0 68 0;
#X connect 70 0 69 0;
#X connect 70 0 76 0;
#X connect 71 0 67 0;
#X connect 72 0 67 0;
#X connect 73 0 67 0;
#X connect 74 0 67 0;
#X connect 75 0 67 0;
#X connect 76 0 98 0;
#X connect 77 0 78 0;
#X connect 78 0 80 0;
#X connect 79 0 77 0;
#X connect 80 0 82 1;
#X connect 80 0 83 0;
#X connect 81 0 93 1;
#X connect 82 0 81 0;
#X connect 83 0 82 0;
#X connect 84 0 86 0;
#X connect 85 0 84 0;
#X connect 85 1 84 1;
#X connect 86 0 75 0;
#X connect 87 0 84 0;
#X connect 88 0 89 0;
#X connect 89 0 84 0;
#X connect 90 0 87 0;
#X connect 90 0 88 0;
#X connect 91 0 92 0;
#X connect 92 0 95 0;
#X connect 93 0 98 0;
#X connect 94 0 90 0;
#X connect 95 0 97 0;
#X connect 96 0 101 0;
#X connect 97 0 99 0;
#X connect 98 0 68 0;
#X connect 99 0 93 0;
#X connect 100 0 101 0;
#X connect 101 0 92 0;
#X connect 102 0 23 0;
#X connect 102 1 24 0;
#X connect 102 2 25 0;
#X connect 102 3 26 0;
#X connect 102 4 103 0;
#X connect 102 5 16 0;
#X connect 103 0 125 0;
#X connect 107 0 163 0;
#X connect 108 0 155 0;
#X connect 109 0 105 0;
#X connect 109 1 106 0;
#X connect 109 2 107 0;
#X connect 109 3 108 0;
#X connect 109 4 110 0;
#X connect 109 5 104 0;
#X connect 110 0 127 0;
#X connect 114 0 196 0;
#X connect 115 0 188 0;
#X connect 116 0 112 0;
#X connect 116 1 113 0;
#X connect 116 2 114 0;
#X connect 116 3 115 0;
#X connect 116 4 117 0;
#X connect 116 5 111 0;
#X connect 117 0 129 0;
#X connect 121 0 216 0;
#X connect 122 0 208 0;
#X connect 123 0 119 0;
#X connect 123 1 120 0;
#X connect 123 2 121 0;
#X connect 123 3 122 0;
#X connect 123 4 124 0;
#X connect 123 5 118 0;
#X connect 124 0 131 0;
#X connect 125 0 133 0;
#X connect 126 0 93 2;
#X connect 127 0 134 0;
#X connect 128 0 93 3;
#X connect 129 0 135 0;
#X connect 130 0 93 4;
#X connect 131 0 136 0;
#X connect 132 0 93 5;
#X connect 133 0 126 0;
#X connect 134 0 128 0;
#X connect 135 0 130 0;
#X connect 136 0 132 0;
#X connect 137 0 143 0;
#X connect 137 1 146 0;
#X connect 137 2 148 0;
#X connect 137 3 147 0;
#X connect 137 4 148 0;
#X connect 138 0 139 0;
#X connect 139 0 141 0;
#X connect 139 1 142 0;
#X connect 140 0 138 0;
#X connect 143 0 144 0;
#X connect 144 0 149 0;
#X connect 144 1 149 5;
#X connect 145 0 149 0;
#X connect 145 1 149 6;
#X connect 146 0 144 0;
#X connect 147 0 144 0;
#X connect 148 0 144 0;
#X connect 149 0 228 0;
#X connect 150 0 151 0;
#X connect 150 1 152 0;
#X connect 150 2 154 0;
#X connect 150 3 153 0;
#X connect 150 4 154 0;
#X connect 151 0 145 0;
#X connect 152 0 145 0;
#X connect 153 0 145 0;
#X connect 154 0 145 0;
#X connect 155 0 156 0;
#X connect 155 1 159 0;
#X connect 155 2 161 0;
#X connect 155 3 160 0;
#X connect 155 4 161 0;
#X connect 156 0 157 0;
#X connect 157 0 162 0;
#X connect 157 1 162 5;
#X connect 158 0 162 0;
#X connect 158 1 162 6;
#X connect 159 0 157 0;
#X connect 160 0 157 0;
#X connect 161 0 157 0;
#X connect 162 0 187 0;
#X connect 163 0 164 0;
#X connect 163 1 165 0;
#X connect 163 2 167 0;
#X connect 163 3 166 0;
#X connect 163 4 167 0;
#X connect 164 0 158 0;
#X connect 165 0 158 0;
#X connect 166 0 158 0;
#X connect 167 0 158 0;
#X connect 168 0 172 0;
#X connect 169 0 180 0;
#X connect 170 0 201 0;
#X connect 171 0 221 0;
#X connect 172 0 173 0;
#X connect 173 0 176 0;
#X connect 173 0 177 0;
#X connect 173 0 178 0;
#X connect 173 0 179 0;
#X connect 174 0 186 0;
#X connect 175 0 186 0;
#X connect 176 0 149 0;
#X connect 177 0 149 1;
#X connect 178 0 149 2;
#X connect 179 0 149 3;
#X connect 180 0 181 0;
#X connect 181 0 182 0;
#X connect 181 0 183 0;
#X connect 181 0 184 0;
#X connect 181 0 185 0;
#X connect 182 0 162 0;
#X connect 183 0 162 1;
#X connect 184 0 162 2;
#X connect 185 0 162 3;
#X connect 186 0 172 0;
#X connect 186 0 180 0;
#X connect 186 0 201 0;
#X connect 186 0 221 0;
#X connect 187 0 72 0;
#X connect 188 0 189 0;
#X connect 188 1 192 0;
#X connect 188 2 194 0;
#X connect 188 3 193 0;
#X connect 188 4 194 0;
#X connect 189 0 190 0;
#X connect 190 0 195 0;
#X connect 190 1 195 5;
#X connect 191 0 195 0;
#X connect 191 1 195 6;
#X connect 192 0 190 0;
#X connect 193 0 190 0;
#X connect 194 0 190 0;
#X connect 195 0 207 0;
#X connect 196 0 197 0;
#X connect 196 1 198 0;
#X connect 196 2 200 0;
#X connect 196 3 199 0;
#X connect 196 4 200 0;
#X connect 197 0 191 0;
#X connect 198 0 191 0;
#X connect 199 0 191 0;
#X connect 200 0 191 0;
#X connect 201 0 202 0;
#X connect 202 0 203 0;
#X connect 202 0 204 0;
#X connect 202 0 205 0;
#X connect 202 0 206 0;
#X connect 203 0 195 0;
#X connect 204 0 195 1;
#X connect 205 0 195 2;
#X connect 206 0 195 3;
#X connect 207 0 73 0;
#X connect 208 0 209 0;
#X connect 208 1 212 0;
#X connect 208 2 214 0;
#X connect 208 3 213 0;
#X connect 208 4 214 0;
#X connect 209 0 210 0;
#X connect 210 0 215 0;
#X connect 210 1 215 5;
#X connect 211 0 215 0;
#X connect 211 1 215 6;
#X connect 212 0 210 0;
#X connect 213 0 210 0;
#X connect 214 0 210 0;
#X connect 215 0 227 0;
#X connect 216 0 217 0;
#X connect 216 1 218 0;
#X connect 216 2 220 0;
#X connect 216 3 219 0;
#X connect 216 4 220 0;
#X connect 217 0 211 0;
#X connect 218 0 211 0;
#X connect 219 0 211 0;
#X connect 220 0 211 0;
#X connect 221 0 222 0;
#X connect 222 0 223 0;
#X connect 222 0 224 0;
#X connect 222 0 225 0;
#X connect 222 0 226 0;
#X connect 223 0 215 0;
#X connect 224 0 215 1;
#X connect 225 0 215 2;
#X connect 226 0 215 3;
#X connect 227 0 74 0;
#X connect 228 0 71 0;
