#N canvas 913 481 450 300 12;
#X obj 150 20 inlet;
#X msg 276 160 context \$1;
#X obj 16 22 inlet;
#X obj 88 20 inlet;
#X obj 97 105 !=;
#X floatatom 165 80 5 0 0 0 - - - 0;
#X obj 15 46 select -1 0 1 2 3;
#X obj 11 256 outlet;
#X msg 14 76 0;
#X msg 77 74 2;
#X msg 44 75 1;
#X obj 15 103 * 7;
#X msg 112 74 3;
#X obj 276 213 oled;
#X obj 53 104 t b f;
#X obj 162 109 t b f;
#X obj 200 22 inlet;
#X obj 289 75 loadbang;
#X obj 290 110 i \$1;
#X obj 260 26 inlet;
#X msg 10 157 clear \, S 2 \, s 0 0 S:\$3 \, s 0 16 L:\$4 \, fill 8 40 48 16 \, fill 10 42 \$5 12 \, box 0 0 64 64 1 \, S 6 \, glyph 10 68 7 9 \$1 1 28 \, box 0 64 64 64 \$2 \, send, f 35;
#X obj 11 133 pack f f f f f;
#X text 10 3 S:pending;
#X text 86 1 S:now;
#X text 150 1 Slot;
#X text 206 5 Len;
#X text 261 7 Ratio;
#X obj 221 67 t b f;
#X connect 0 0 21 2;
#X connect 1 0 13 0;
#X connect 2 0 6 0;
#X connect 2 0 4 0;
#X connect 3 0 5 0;
#X connect 4 0 14 0;
#X connect 5 0 15 0;
#X connect 6 0 8 0;
#X connect 6 1 10 0;
#X connect 6 2 12 0;
#X connect 6 3 9 0;
#X connect 6 4 12 0;
#X connect 8 0 11 0;
#X connect 9 0 11 0;
#X connect 10 0 11 0;
#X connect 11 0 21 0;
#X connect 12 0 11 0;
#X connect 13 0 7 0;
#X connect 14 0 21 0;
#X connect 14 1 21 1;
#X connect 15 0 4 0;
#X connect 15 1 4 1;
#X connect 16 0 21 3;
#X connect 17 0 18 0;
#X connect 18 0 1 0;
#X connect 19 0 27 0;
#X connect 20 0 13 0;
#X connect 21 0 20 0;
#X connect 27 0 21 0;
#X connect 27 1 21 4;
