#N canvas 335 328 1157 438 12;
#X floatatom 922 166 5 0 0 0 - - - 0;
#X obj 69 541 dac~;
#X obj -55 36 adc~;
#X obj 218 15 notein;
#X obj 215 43 pack f f;
#X obj 71 498 *~ 1;
#X msg 250 223 clean;
#X msg 77 21 \; pd dsp 1;
#X obj 76 -3 loadbang;
#X text 917 89 Global QuanTick Len, f 8;
#X obj 236 418 *~ 1;
#X obj 390 419 *~ 1;
#X obj 407 372 s QT;
#X obj 919 136 r QT;
#X msg 402 221 clean;
#X msg 561 223 clean;
#X obj -68 405 plonk~ 2000;
#X floatatom 294 353 5 0 0 0 - - - 0;
#X floatatom 319 374 5 0 0 0 - - - 0;
#X floatatom 344 351 5 0 0 0 - - - 0;
#X floatatom 367 373 5 0 0 0 - - - 0;
#X obj 235 263 bank~ 1, f 8;
#X obj 388 263 bank~ 2, f 8;
#X obj 543 263 bank~ 3, f 8;
#X obj -50 95 +~;
#X msg 551 200 delete;
#X msg 393 198 delete;
#X msg 240 200 delete;
#X obj 545 422 *~ 1;
#X floatatom 412 290 5 0 0 0 - - - 0;
#X floatatom 567 292 5 0 0 0 - - - 0;
#X obj -40 351 ticker;
#X obj -70 297 r QT;
#X obj -69 353 bng 19 50 50 0 empty empty empty 0 -10 0 12 #fcfcfc #000000 #000000;
#X msg -31 297 reset;
#X obj -68 379 spigot;
#X obj -12 379 tgl 19 0 empty empty empty 0 -10 0 12 #fcfcfc #000000 #000000 0 1;
#X msg 722 226 clean;
#X msg 710 204 delete;
#X floatatom 718 294 5 0 0 0 - - - 0;
#X obj 697 423 *~ 1;
#X obj -69 431 *~ 0.7;
#X obj 697 265 bank~ 4, f 8;
#X floatatom 258 295 5 0 0 0 - - - 0;
#X obj 794 79 loadbang;
#X obj 556 77 mapper 39;
#X obj 216 78 mapper 35 36 37 38;
#X obj 395 78 mapper 40 41 42 43;
#X obj 913 214 / 44100;
#X floatatom 972 214 5 0 0 0 - - - 0;
#X floatatom 965 265 5 0 0 0 - - - 0;
#X obj 966 242 /;
#X msg 932 242 60;
#X obj -69 180 env~;
#X floatatom -64 235 5 0 0 0 - - - 0;
#X obj 1 158 loadbang;
#X obj -22 234 / 100;
#X obj 22 234 * 127;
#X obj -27 159 bng 19 250 50 0 empty empty empty 0 -10 0 12 #fcfcfc #000000 #000000;
#X obj -8 183 metro 50;
#X obj -66 209 snapshot~ 10000 5000;
#X obj 75 442 writesf~;
#X msg 65 415 open sesh0.wav;
#X msg 114 388 stop;
#X msg 65 388 start;
#X obj 709 79 mapper 44;
#X obj -68 136 hip~ 1000;
#X obj 733 130 s RESET;
#X text 974 284 BPM;
#X obj 915 189 * 64;
#X msg -70 324 \$1 \, div 1 \, start;
#X text 556 55 Undo / shift;
#X obj 24 258 s ENV;
#X msg 558 122 undo;
#X text 714 58 Del All;
#X obj 292 516 bank_oled;
#X obj 516 572 midiout;
#X obj 579 572 midiout 2;
#X msg 366 516 0;
#X obj 717 103 sel 1;
#X obj 384 109 sel 1;
#X obj 424 109 sel 1;
#X obj 464 109 sel 1;
#X obj 502 109 sel 1;
#X obj 556 100 sel 1;
#X msg 515 514 1;
#X obj 365 491 r RESET;
#X obj 515 491 r RESET;
#X obj 442 514 bank_oled;
#X obj 283 321 unpack f f f f;
#X obj 565 371 s QT;
#X floatatom 452 352 5 0 0 0 - - - 0;
#X floatatom 477 373 5 0 0 0 - - - 0;
#X floatatom 502 350 5 0 0 0 - - - 0;
#X floatatom 525 372 5 0 0 0 - - - 0;
#X obj 441 320 unpack f f f f;
#X obj 724 373 s QT;
#X floatatom 611 354 5 0 0 0 - - - 0;
#X floatatom 636 375 5 0 0 0 - - - 0;
#X floatatom 661 352 5 0 0 0 - - - 0;
#X floatatom 684 374 5 0 0 0 - - - 0;
#X obj 600 322 unpack f f f f;
#X obj 884 371 s QT;
#X floatatom 771 352 5 0 0 0 - - - 0;
#X floatatom 796 373 5 0 0 0 - - - 0;
#X floatatom 821 350 5 0 0 0 - - - 0;
#X floatatom 844 372 5 0 0 0 - - - 0;
#X obj 760 320 unpack f f f f;
#X obj 680 492 r RESET;
#X obj 607 515 bank_oled;
#X obj 853 491 r RESET;
#X obj 780 514 bank_oled;
#X msg 680 515 2;
#X msg 853 514 3;
#X msg 800 131 1;
#X obj 710 574 oled 5;
#X msg 765 573 upload status_icons.txt;
#X obj 768 549 loadbang;
#X obj 797 105 delay 1000;
#X connect 2 0 24 0;
#X connect 2 1 24 1;
#X connect 3 0 4 0;
#X connect 3 1 4 1;
#X connect 4 0 45 0;
#X connect 4 0 46 0;
#X connect 4 0 47 0;
#X connect 4 0 65 0;
#X connect 5 0 1 0;
#X connect 5 0 1 1;
#X connect 5 0 61 0;
#X connect 6 0 21 0;
#X connect 8 0 7 0;
#X connect 10 0 5 0;
#X connect 11 0 5 0;
#X connect 13 0 0 0;
#X connect 13 0 21 3;
#X connect 13 0 22 3;
#X connect 13 0 23 3;
#X connect 13 0 42 3;
#X connect 13 0 69 0;
#X connect 14 0 22 0;
#X connect 15 0 23 0;
#X connect 16 0 41 0;
#X connect 18 0 75 1;
#X connect 19 0 75 0;
#X connect 21 0 10 0;
#X connect 21 1 43 0;
#X connect 21 2 89 0;
#X connect 22 0 11 0;
#X connect 22 1 29 0;
#X connect 22 2 95 0;
#X connect 23 0 28 0;
#X connect 23 1 30 0;
#X connect 23 2 101 0;
#X connect 24 0 21 0;
#X connect 24 0 22 0;
#X connect 24 0 23 0;
#X connect 24 0 42 0;
#X connect 24 0 66 0;
#X connect 25 0 23 0;
#X connect 26 0 22 0;
#X connect 27 0 21 0;
#X connect 28 0 5 0;
#X connect 31 0 33 0;
#X connect 32 0 70 0;
#X connect 33 0 35 0;
#X connect 34 0 31 0;
#X connect 35 0 16 0;
#X connect 36 0 35 1;
#X connect 37 0 42 0;
#X connect 38 0 42 0;
#X connect 40 0 5 0;
#X connect 41 0 5 0;
#X connect 42 0 40 0;
#X connect 42 1 39 0;
#X connect 42 2 107 0;
#X connect 44 0 118 0;
#X connect 45 0 84 0;
#X connect 46 0 21 1;
#X connect 46 1 22 1;
#X connect 46 2 23 1;
#X connect 46 3 42 1;
#X connect 47 0 80 0;
#X connect 47 1 81 0;
#X connect 47 2 82 0;
#X connect 47 3 83 0;
#X connect 48 0 49 0;
#X connect 49 0 51 1;
#X connect 49 0 52 0;
#X connect 51 0 50 0;
#X connect 52 0 51 0;
#X connect 53 0 60 0;
#X connect 54 0 56 0;
#X connect 55 0 59 0;
#X connect 56 0 57 0;
#X connect 57 0 72 0;
#X connect 58 0 59 0;
#X connect 59 0 60 0;
#X connect 60 0 54 0;
#X connect 62 0 61 0;
#X connect 63 0 61 0;
#X connect 64 0 61 0;
#X connect 65 0 79 0;
#X connect 66 0 53 0;
#X connect 69 0 48 0;
#X connect 70 0 31 0;
#X connect 73 0 42 0;
#X connect 73 0 23 0;
#X connect 73 0 22 0;
#X connect 73 0 21 0;
#X connect 75 0 76 0;
#X connect 75 0 77 0;
#X connect 78 0 75 2;
#X connect 79 0 37 0;
#X connect 79 0 15 0;
#X connect 79 0 14 0;
#X connect 79 0 6 0;
#X connect 79 0 67 0;
#X connect 80 0 27 0;
#X connect 81 0 26 0;
#X connect 82 0 25 0;
#X connect 83 0 38 0;
#X connect 84 0 73 0;
#X connect 85 0 88 2;
#X connect 86 0 78 0;
#X connect 87 0 85 0;
#X connect 88 0 77 0;
#X connect 88 0 76 0;
#X connect 89 0 17 0;
#X connect 89 1 18 0;
#X connect 89 2 19 0;
#X connect 89 3 20 0;
#X connect 89 3 12 0;
#X connect 92 0 88 1;
#X connect 93 0 88 0;
#X connect 95 0 91 0;
#X connect 95 1 92 0;
#X connect 95 2 93 0;
#X connect 95 3 94 0;
#X connect 95 3 90 0;
#X connect 98 0 109 1;
#X connect 99 0 109 0;
#X connect 101 0 97 0;
#X connect 101 1 98 0;
#X connect 101 2 99 0;
#X connect 101 3 100 0;
#X connect 101 3 96 0;
#X connect 104 0 111 1;
#X connect 105 0 111 0;
#X connect 107 0 103 0;
#X connect 107 1 104 0;
#X connect 107 2 105 0;
#X connect 107 3 106 0;
#X connect 107 3 102 0;
#X connect 108 0 112 0;
#X connect 109 0 76 0;
#X connect 109 0 77 0;
#X connect 110 0 113 0;
#X connect 111 0 76 0;
#X connect 111 0 77 0;
#X connect 112 0 109 2;
#X connect 113 0 111 2;
#X connect 114 0 79 0;
#X connect 115 0 77 0;
#X connect 115 0 76 0;
#X connect 116 0 115 0;
#X connect 117 0 116 0;
#X connect 118 0 114 0;
