#N canvas 569 378 498 375 12;
#X obj 13 7 noise~;
#X obj 13 58 *~;
#X msg 171 21 1;
#X msg 177 39 0;
#X msg 213 19 1;
#X msg 219 37 0;
#X text 165 -3 Main;
#X text 214 -4 Alt;
#X text 190 140 Quan Tick;
#X obj 61 224 dac~;
#X obj 223 228 unpack f f f f f;
#X floatatom 186 118 5 0 0 0 - - - 0;
#X floatatom 198 281 5 0 0 0 - - - 0;
#X floatatom 242 282 5 0 0 0 - - - 0;
#X floatatom 286 282 5 0 0 0 - - - 0;
#X floatatom 330 282 5 0 0 0 - - - 0;
#X floatatom 374 282 5 0 0 0 - - - 0;
#X obj 160 193 route q_info s_info;
#X text 153 304 Action When;
#X text 220 322 Tick_start;
#X text 280 306 Tick_next;
#X text 328 326 Tick_duration;
#X text 386 306 Motif_state;
#X text 13 111 Audio in;
#X text 0 168 Audio Out;
#X text 172 -24 Controls:;
#X msg 109 18 clean;
#X obj 13 84 *~ 0.1;
#X obj 22 32 phasor~ 3;
#X floatatom 122 72 5 0 0 0 - - - 0;
#X floatatom 167 72 5 0 0 0 - - - 0;
#X msg 345 93 activate;
#X msg 357 116 deactivate;
#X obj 369 29 loadbang;
#X msg 368 61 \; pd dsp 1;
#X obj 112 114 bank~ 1;
#X connect 0 0 1 0;
#X connect 1 0 27 0;
#X connect 2 0 29 0;
#X connect 3 0 29 0;
#X connect 4 0 30 0;
#X connect 5 0 30 0;
#X connect 10 0 12 0;
#X connect 10 1 13 0;
#X connect 10 2 14 0;
#X connect 10 3 15 0;
#X connect 10 4 16 0;
#X connect 11 0 35 3;
#X connect 17 0 11 0;
#X connect 17 1 10 0;
#X connect 26 0 35 0;
#X connect 27 0 9 0;
#X connect 27 0 35 0;
#X connect 28 0 1 1;
#X connect 29 0 35 1;
#X connect 30 0 35 2;
#X connect 31 0 35 0;
#X connect 32 0 35 0;
#X connect 33 0 31 0;
#X connect 33 0 34 0;
#X connect 35 0 9 1;
#X connect 35 1 17 0;
