#N canvas 700 348 555 429 12;
#X floatatom 10 193 4 0 0 0 - - - 0;
#X floatatom 13 221 5 0 0 0 - - - 0;
#X floatatom 53 221 5 0 0 0 - - - 0;
#X floatatom 92 222 5 0 0 0 - - - 0;
#X msg 196 195 clean;
#X obj 31 162 bank~ 1, f 9;
#X floatatom 323 191 4 0 0 0 - - - 0;
#X obj 371 163 bank~ 2, f 9;
#X obj 209 275 ticker;
#X floatatom 264 310 4 0 0 0 - - - 0;
#X msg 208 233 \$1 \, start;
#X msg 227 254 reset;
#X msg 15 40 \; pd dsp 1;
#X obj 15 16 loadbang;
#X obj 173 309 bng 19 51 50 0 empty empty empty 0 -10 0 12 #fcfcfc #000000 #000000;
#X obj 195 309 bng 19 51 50 0 empty empty empty 0 -10 0 12 #fcfcfc #000000 #000000;
#X obj 217 309 bng 19 51 50 0 empty empty empty 0 -10 0 12 #fcfcfc #000000 #000000;
#X obj 239 309 bng 19 51 50 0 empty empty empty 0 -10 0 12 #fcfcfc #000000 #000000;
#X msg 245 195 dbg;
#X obj 146 336 plonk~ 1500;
#X obj 219 407 dac~;
#X obj 238 337 plonk~ 1000;
#X obj 22 242 unpack f f f;
#X floatatom 10 266 5 0 0 0 - - - 0;
#X floatatom 50 266 5 0 0 0 - - - 0;
#X floatatom 86 266 5 0 0 0 - - - 0;
#X obj 47 194 unpack f f f;
#X obj 77 295 *;
#X floatatom 107 295 5 0 0 0 - - - 0;
#X obj 10 295 pack f f;
#X obj 151 130 list;
#X floatatom 344 219 5 0 0 0 - - - 0;
#X floatatom 384 219 5 0 0 0 - - - 0;
#X floatatom 423 220 5 0 0 0 - - - 0;
#X obj 353 240 unpack f f f;
#X floatatom 341 264 5 0 0 0 - - - 0;
#X floatatom 381 264 5 0 0 0 - - - 0;
#X floatatom 417 264 5 0 0 0 - - - 0;
#X obj 361 192 unpack f f f;
#X obj 408 293 *;
#X floatatom 438 293 5 0 0 0 - - - 0;
#X obj 341 293 pack f f;
#X obj 206 379 *~ 1;
#X obj 111 29 adc~;
#X obj 112 58 *~ 1;
#X obj 195 131 unpack f f;
#X floatatom 195 158 5 0 0 0 - - - 0;
#X floatatom 237 158 5 0 0 0 - - - 0;
#X obj 371 65 sel 1;
#X obj 371 87 bng 19 250 50 0 empty empty empty 0 -10 0 12 #fcfcfc #000000 #000000;
#X text 170 108 tickLen / tickPerBar;
#N canvas 364 145 420 531 div_selector 0;
#X obj 29 72 i;
#X floatatom 29 121 5 0 0 0 - - - 0;
#X floatatom 120 101 5 0 0 0 - - - 0;
#X obj 29 98 + 1;
#X obj 29 39 inlet;
#X obj 78 38 bng 19 250 50 0 empty empty empty 0 -10 0 12 #fcfcfc #000000 #000000;
#X obj 70 70 + 1;
#X obj 200 124 route 24 16 8 4 2 1;
#X msg 320 45 16;
#X obj 241 35 inlet;
#X obj 71 97 mod 6;
#X floatatom 11 370 5 0 0 0 - - - 0;
#X floatatom 50 371 5 0 0 0 - - - 0;
#X floatatom 88 371 5 0 0 0 - - - 0;
#X floatatom 126 371 5 0 0 0 - - - 0;
#X floatatom 164 371 5 0 0 0 - - - 0;
#X floatatom 240 60 5 0 0 0 - - - 0;
#X msg 356 49 8;
#X msg 103 471 quan_beats \$1;
#X obj 103 496 outlet, f 7;
#X obj 40 337 unpack f f f f f f;
#X floatatom 202 371 5 0 0 0 - - - 0;
#X msg 144 173 5 24 12 6 48 96;
#X obj 170 496 print div;
#X obj 29 146 sel 1 2 3 4 5;
#X msg 159 197 5 16 8 4 32 64;
#X msg 181 219 5 8 4 2 16 32;
#X floatatom 105 404 5 0 0 0 - - - 0;
#X obj 291 497 outlet;
#X obj 291 450 /;
#X floatatom 291 475 5 0 0 0 - - - 0;
#X obj 135 37 loadbang;
#X msg 136 59 0;
#X msg 200 244 5 4 2 1 8 16;
#X msg 210 267 4 2 1 4 8;
#X msg 221 290 3 1 2 4;
#X obj 240 84 t b f f b;
#X obj 120 445 spigot;
#X msg 197 413 0;
#X msg 166 413 1;
#X connect 0 0 3 0;
#X connect 0 0 6 0;
#X connect 1 0 24 0;
#X connect 3 0 1 0;
#X connect 4 0 0 0;
#X connect 5 0 0 0;
#X connect 6 0 10 0;
#X connect 7 0 22 0;
#X connect 7 1 25 0;
#X connect 7 2 26 0;
#X connect 7 3 33 0;
#X connect 7 4 34 0;
#X connect 7 5 35 0;
#X connect 8 0 16 0;
#X connect 9 0 16 0;
#X connect 10 0 0 1;
#X connect 11 0 10 1;
#X connect 11 0 27 0;
#X connect 12 0 27 0;
#X connect 13 0 27 0;
#X connect 14 0 27 0;
#X connect 15 0 27 0;
#X connect 16 0 36 0;
#X connect 17 0 16 0;
#X connect 18 0 19 0;
#X connect 18 0 23 0;
#X connect 20 0 11 0;
#X connect 20 1 12 0;
#X connect 20 2 13 0;
#X connect 20 3 14 0;
#X connect 20 4 15 0;
#X connect 20 5 21 0;
#X connect 21 0 27 0;
#X connect 22 0 20 0;
#X connect 24 0 12 0;
#X connect 24 1 13 0;
#X connect 24 2 14 0;
#X connect 24 3 15 0;
#X connect 24 4 21 0;
#X connect 25 0 20 0;
#X connect 26 0 20 0;
#X connect 27 0 37 0;
#X connect 29 0 30 0;
#X connect 30 0 28 0;
#X connect 31 0 32 0;
#X connect 32 0 0 0;
#X connect 33 0 20 0;
#X connect 34 0 20 0;
#X connect 35 0 20 0;
#X connect 36 0 39 0;
#X connect 36 0 32 0;
#X connect 36 1 27 0;
#X connect 36 2 29 1;
#X connect 36 2 7 0;
#X connect 36 3 38 0;
#X connect 37 0 18 0;
#X connect 37 0 29 0;
#X connect 38 0 37 1;
#X connect 39 0 37 1;
#X restore 371 109 pd div_selector;
#X obj 199 18 notein;
#X obj 197 50 pack f f;
#X obj 263 373 *~ 1;
#X obj 298 374 tgl 19 0 empty empty empty 0 -10 0 12 #fcfcfc #000000 #000000 0 1;
#X obj 345 395 writesf~;
#X msg 353 358 open sesh0.wav;
#X msg 341 332 start;
#X msg 384 330 stop;
#X msg 55 123 delete;
#X msg 391 135 delete;
#X obj 197 77 mapper 35 36 39 44 40 41;
#X connect 4 0 5 0;
#X connect 4 0 7 0;
#X connect 4 0 11 0;
#X connect 5 0 42 0;
#X connect 5 1 0 0;
#X connect 5 2 26 0;
#X connect 5 3 22 0;
#X connect 7 0 42 0;
#X connect 7 1 6 0;
#X connect 7 2 38 0;
#X connect 7 3 34 0;
#X connect 8 0 9 0;
#X connect 8 1 14 0;
#X connect 8 2 15 0;
#X connect 8 3 16 0;
#X connect 8 4 17 0;
#X connect 10 0 8 0;
#X connect 11 0 8 0;
#X connect 13 0 12 0;
#X connect 14 0 19 0;
#X connect 15 0 21 0;
#X connect 16 0 21 0;
#X connect 17 0 21 0;
#X connect 18 0 5 0;
#X connect 18 0 7 0;
#X connect 18 0 8 0;
#X connect 19 0 54 0;
#X connect 21 0 54 0;
#X connect 22 0 23 0;
#X connect 22 0 29 0;
#X connect 22 1 24 0;
#X connect 22 1 29 1;
#X connect 22 2 25 0;
#X connect 23 0 27 0;
#X connect 24 0 27 1;
#X connect 26 0 1 0;
#X connect 26 1 2 0;
#X connect 26 2 3 0;
#X connect 27 0 28 0;
#X connect 28 0 10 0;
#X connect 29 0 30 0;
#X connect 30 0 7 3;
#X connect 30 0 5 3;
#X connect 30 0 45 0;
#X connect 34 0 35 0;
#X connect 34 0 41 0;
#X connect 34 1 36 0;
#X connect 34 1 41 1;
#X connect 34 2 37 0;
#X connect 35 0 39 0;
#X connect 36 0 39 1;
#X connect 38 0 31 0;
#X connect 38 1 32 0;
#X connect 38 2 33 0;
#X connect 39 0 40 0;
#X connect 41 0 30 0;
#X connect 42 0 20 0;
#X connect 42 0 20 1;
#X connect 42 0 56 0;
#X connect 43 0 44 0;
#X connect 43 1 44 0;
#X connect 44 0 5 0;
#X connect 44 0 7 0;
#X connect 44 0 56 0;
#X connect 45 0 46 0;
#X connect 45 1 47 0;
#X connect 47 0 51 1;
#X connect 48 0 49 0;
#X connect 49 0 51 0;
#X connect 51 0 7 0;
#X connect 51 0 5 0;
#X connect 52 0 53 0;
#X connect 52 1 53 1;
#X connect 53 0 62 0;
#X connect 54 0 42 0;
#X connect 55 0 54 1;
#X connect 57 0 56 0;
#X connect 58 0 56 0;
#X connect 59 0 56 0;
#X connect 60 0 5 0;
#X connect 61 0 7 0;
#X connect 62 0 5 1;
#X connect 62 1 7 1;
#X connect 62 2 48 0;
#X connect 62 3 4 0;
#X connect 62 4 60 0;
#X connect 62 5 61 0;
