#N canvas 913 603 450 300 12;
#X obj 276 21 inlet;
#X msg 276 160 context \$1;
#X obj 11 133 pack f f;
#X obj 56 108 bang;
#X obj 15 8 inlet;
#X obj 80 7 inlet;
#X obj 90 107 !=;
#X floatatom 121 108 5 0 0 0 - - - 0;
#X msg 166 106 bang;
#X obj 14 32 select -1 0 1 2 3;
#X obj 11 256 outlet;
#X msg 14 76 0;
#X msg 77 74 2;
#X msg 44 75 1;
#X obj 15 105 * 7;
#X msg 112 74 3;
#X obj 276 213 oled;
#X msg 10 157 clear \, xor 0 \, S 2 \, s 0 0 AA \, box 0 0 64 32 0 \, S 6 \, xor 1 \, glyph 10 50 7 9 \$1 1 28 \, box 0 32 64 96 \$2 \, send, f 35;
#X connect 0 0 1 0;
#X connect 1 0 16 0;
#X connect 2 0 17 0;
#X connect 3 0 2 0;
#X connect 4 0 9 0;
#X connect 4 0 6 0;
#X connect 5 0 7 0;
#X connect 6 0 2 1;
#X connect 6 0 3 0;
#X connect 7 0 6 1;
#X connect 7 0 8 0;
#X connect 8 0 6 0;
#X connect 9 0 11 0;
#X connect 9 1 13 0;
#X connect 9 2 15 0;
#X connect 9 3 12 0;
#X connect 9 4 15 0;
#X connect 11 0 14 0;
#X connect 12 0 14 0;
#X connect 13 0 14 0;
#X connect 14 0 2 0;
#X connect 15 0 14 0;
#X connect 16 0 10 0;
#X connect 17 0 16 0;
