#N canvas 646 516 510 345 12;
#X msg 159 108 debug_info;
#X floatatom 44 183 4 0 0 0 - - - 0;
#X msg 53 15 1;
#X msg 21 64 0;
#X floatatom 81 66 5 0 0 0 - - - 0;
#X obj 77 40 t b f;
#X obj 20 41 del 500;
#X obj 81 189 unpack f f f f;
#X floatatom 29 223 5 0 0 0 - - - 0;
#X floatatom 69 223 5 0 0 0 - - - 0;
#X floatatom 108 224 5 0 0 0 - - - 0;
#X floatatom 149 225 5 0 0 0 - - - 0;
#X msg 169 85 clean;
#X obj 24 158 bank~ 1, f 9;
#X obj 20 88 i;
#X floatatom 182 154 5 0 0 0 - - - 0;
#X floatatom 291 182 4 0 0 0 - - - 0;
#X msg 300 14 1;
#X msg 268 63 0;
#X floatatom 328 65 5 0 0 0 - - - 0;
#X obj 324 39 t b f;
#X obj 267 40 del 500;
#X obj 328 188 unpack f f f f;
#X floatatom 276 222 5 0 0 0 - - - 0;
#X floatatom 316 222 5 0 0 0 - - - 0;
#X floatatom 355 223 5 0 0 0 - - - 0;
#X floatatom 396 224 5 0 0 0 - - - 0;
#X obj 267 87 i;
#X obj 271 157 bank~ 2, f 9;
#X obj 199 256 ticker;
#X floatatom 194 287 5 0 0 0 - - - 0;
#X msg 198 214 \$1 \, start;
#X msg 217 235 reset;
#X msg 431 35 \; pd dsp 1;
#X obj 431 11 loadbang;
#X obj 236 288 bng 19 51 50 0 empty empty empty 0 -10 0 12 #fcfcfc #000000 #000000;
#X obj 258 288 bng 19 51 50 0 empty empty empty 0 -10 0 12 #fcfcfc #000000 #000000;
#X obj 280 288 bng 19 51 50 0 empty empty empty 0 -10 0 12 #fcfcfc #000000 #000000;
#X obj 302 288 bng 19 51 50 0 empty empty empty 0 -10 0 12 #fcfcfc #000000 #000000;
#X connect 0 0 13 0;
#X connect 0 0 28 0;
#X connect 0 0 29 0;
#X connect 2 0 5 0;
#X connect 3 0 4 0;
#X connect 4 0 14 0;
#X connect 5 0 6 0;
#X connect 5 1 4 0;
#X connect 6 0 3 0;
#X connect 7 0 8 0;
#X connect 7 1 9 0;
#X connect 7 2 10 0;
#X connect 7 3 11 0;
#X connect 12 0 13 0;
#X connect 12 0 28 0;
#X connect 12 0 32 0;
#X connect 13 1 1 0;
#X connect 13 2 7 0;
#X connect 13 3 15 0;
#X connect 14 0 13 1;
#X connect 15 0 28 3;
#X connect 15 0 13 3;
#X connect 15 0 31 0;
#X connect 17 0 20 0;
#X connect 18 0 19 0;
#X connect 19 0 27 0;
#X connect 20 0 21 0;
#X connect 20 1 19 0;
#X connect 21 0 18 0;
#X connect 22 0 23 0;
#X connect 22 1 24 0;
#X connect 22 2 25 0;
#X connect 22 3 26 0;
#X connect 27 0 28 1;
#X connect 28 1 16 0;
#X connect 28 2 22 0;
#X connect 28 3 15 0;
#X connect 29 0 30 0;
#X connect 29 1 35 0;
#X connect 29 2 36 0;
#X connect 29 3 37 0;
#X connect 29 4 38 0;
#X connect 31 0 29 0;
#X connect 32 0 29 0;
#X connect 34 0 33 0;
