#N canvas 913 481 450 300 12;
#X obj 276 21 inlet;
#X msg 276 160 context \$1;
#X obj 15 8 inlet;
#X obj 87 6 inlet;
#X obj 97 105 !=;
#X floatatom 165 80 5 0 0 0 - - - 0;
#X obj 14 32 select -1 0 1 2 3;
#X obj 11 256 outlet;
#X msg 14 76 0;
#X msg 77 74 2;
#X msg 44 75 1;
#X obj 15 103 * 7;
#X msg 112 74 3;
#X obj 276 213 oled;
#X msg 10 157 clear \, xor 0 \, S 2 \, s 0 0 B\$3 \, box 0 0 64 32 0 \, S 6 \, xor 1 \, glyph 10 50 7 9 \$1 1 28 \, box 0 32 64 96 \$2 \, send, f 35;
#X obj 11 133 pack f f f;
#X obj 53 104 t b f;
#X obj 162 109 t b f;
#X connect 0 0 1 0;
#X connect 0 0 15 2;
#X connect 1 0 13 0;
#X connect 2 0 6 0;
#X connect 2 0 4 0;
#X connect 3 0 5 0;
#X connect 4 0 16 0;
#X connect 5 0 17 0;
#X connect 6 0 8 0;
#X connect 6 1 10 0;
#X connect 6 2 12 0;
#X connect 6 3 9 0;
#X connect 6 4 12 0;
#X connect 8 0 11 0;
#X connect 9 0 11 0;
#X connect 10 0 11 0;
#X connect 11 0 15 0;
#X connect 12 0 11 0;
#X connect 13 0 7 0;
#X connect 14 0 13 0;
#X connect 15 0 14 0;
#X connect 16 0 15 0;
#X connect 16 1 15 1;
#X connect 17 0 4 0;
#X connect 17 1 4 1;
