#N canvas 700 362 510 397 12;
#X floatatom 44 183 4 0 0 0 - - - 0;
#X msg 53 15 1;
#X msg 21 64 0;
#X floatatom 81 66 5 0 0 0 - - - 0;
#X obj 77 40 t b f;
#X obj 20 41 del 500;
#X obj 81 189 unpack f f f f;
#X floatatom 29 223 5 0 0 0 - - - 0;
#X floatatom 69 223 5 0 0 0 - - - 0;
#X floatatom 108 224 5 0 0 0 - - - 0;
#X floatatom 149 225 5 0 0 0 - - - 0;
#X msg 169 85 clean;
#X obj 24 158 bank~ 1, f 9;
#X obj 20 88 i;
#X floatatom 182 154 5 0 0 0 - - - 0;
#X floatatom 291 182 4 0 0 0 - - - 0;
#X msg 300 14 1;
#X msg 268 63 0;
#X floatatom 328 65 5 0 0 0 - - - 0;
#X obj 324 39 t b f;
#X obj 267 40 del 500;
#X obj 328 188 unpack f f f f;
#X floatatom 276 222 5 0 0 0 - - - 0;
#X floatatom 316 222 5 0 0 0 - - - 0;
#X floatatom 355 223 5 0 0 0 - - - 0;
#X floatatom 396 224 5 0 0 0 - - - 0;
#X obj 267 87 i;
#X obj 271 157 bank~ 2, f 9;
#X obj 199 256 ticker;
#X floatatom 194 287 5 0 0 0 - - - 0;
#X msg 198 214 \$1 \, start;
#X msg 217 235 reset;
#X msg 431 35 \; pd dsp 1;
#X obj 431 11 loadbang;
#X obj 236 288 bng 19 51 50 0 empty empty empty 0 -10 0 12 #fcfcfc #000000 #000000;
#X obj 258 288 bng 19 51 50 0 empty empty empty 0 -10 0 12 #fcfcfc #000000 #000000;
#X obj 280 288 bng 19 51 50 0 empty empty empty 0 -10 0 12 #fcfcfc #000000 #000000;
#X obj 302 288 bng 19 51 50 0 empty empty empty 0 -10 0 12 #fcfcfc #000000 #000000;
#X obj 368 315 print;
#X msg 368 287 -----------;
#X msg 159 108 dbg;
#X obj 136 317 plonk~ 1500;
#X obj 146 344 dac~;
#X obj 238 345 dac~;
#X obj 228 318 plonk~ 1000;
#X msg 169 59 debug_info;
#X msg 315 114 quan_beats 2;
#X obj 216 190 * 4;
#X msg 349 136 quan_beats 4;
#X msg 374 159 quan_beats 8;
#X obj 254 196 print;
#X connect 1 0 4 0;
#X connect 2 0 3 0;
#X connect 3 0 13 0;
#X connect 4 0 5 0;
#X connect 4 1 3 0;
#X connect 5 0 2 0;
#X connect 6 0 7 0;
#X connect 6 1 8 0;
#X connect 6 2 9 0;
#X connect 6 3 10 0;
#X connect 11 0 12 0;
#X connect 11 0 27 0;
#X connect 11 0 31 0;
#X connect 12 1 0 0;
#X connect 12 2 6 0;
#X connect 12 3 14 0;
#X connect 13 0 12 1;
#X connect 14 0 27 3;
#X connect 14 0 12 3;
#X connect 14 0 47 0;
#X connect 15 0 50 0;
#X connect 16 0 19 0;
#X connect 17 0 18 0;
#X connect 18 0 26 0;
#X connect 19 0 20 0;
#X connect 19 1 18 0;
#X connect 20 0 17 0;
#X connect 21 0 22 0;
#X connect 21 1 23 0;
#X connect 21 2 24 0;
#X connect 21 3 25 0;
#X connect 26 0 27 1;
#X connect 27 1 15 0;
#X connect 27 2 21 0;
#X connect 27 3 14 0;
#X connect 28 0 29 0;
#X connect 28 1 34 0;
#X connect 28 2 35 0;
#X connect 28 3 36 0;
#X connect 28 4 37 0;
#X connect 30 0 28 0;
#X connect 31 0 28 0;
#X connect 33 0 32 0;
#X connect 34 0 41 0;
#X connect 35 0 44 0;
#X connect 36 0 44 0;
#X connect 37 0 44 0;
#X connect 39 0 38 0;
#X connect 40 0 12 0;
#X connect 40 0 27 0;
#X connect 40 0 28 0;
#X connect 40 0 39 0;
#X connect 41 0 42 0;
#X connect 41 0 42 1;
#X connect 44 0 43 0;
#X connect 44 0 43 1;
#X connect 45 0 12 0;
#X connect 45 0 27 0;
#X connect 46 0 27 0;
#X connect 47 0 30 0;
#X connect 48 0 27 0;
#X connect 49 0 27 0;
