#N canvas 405 120 979 586 10;
#X obj 79 73 noteout;
#X obj 425 332 midiout;
#X msg 104 26 3;
#X msg 121 38 0;
#X msg 80 30 37, f 2;
#X msg 45 50 42;
#X obj 8 134 notein;
#X obj 1 182 noteout;
#X obj 437 213 list fromsymbol;
#X obj 467 292 print;
#X msg 437 186 symbol hello1;
#X obj 456 242 list prepend;
#X msg 537 225 240;
#X obj 465 267 list append;
#X msg 541 255 list 0 247;
#X obj 545 170 loadbang;
#X obj 222 11 bng 16 250 50 0 empty empty empty 0 -8 0 10 #fcfcfc #000000 #000000;
#X obj 249 70 del 5;
#X obj 223 43 metro 100;
#X msg 383 128 240 \, 120 \, 2 \, 71 \, 2 \, 99 \, 108 \, 0 \, 0 \, 20 \, 30 \, 117 \, 247;
#X msg 403 154 240 \, 120 \, 2 \, 71 \, 2 \, 99 \, 108 \, 0 \, 0 \, 40 \, 20 \, 117 \, 247;
#X msg 300 82 240 \, 120 \, 2 \, 99 \, 71 \, 1 \, 114 \, 0 \, 10 \, 20 \, 10 \, 1 \, 117 \, 247;
#X msg 253 16 stop;
#X msg 333 103 240 \, 120 \, 2 \, 99 \, 83 \, 3 \, 71 \, 1 \, 115 \, 0 \, 0 \, 104 \, 101 \, 121 \, 0 \, 117 \, 247;
#X obj 100 264 i;
#X obj 138 253 + 1;
#X obj 137 282 mod 4;
#X floatatom 68 290 5 0 0 0 - - - 0;
#X msg 94 221 0;
#X obj 132 204 bng 16 50 10 0 empty empty empty 0 -8 0 10 #fcfcfc #000000 #000000;
#X obj 105 163 metro 500;
#X obj 72 316 sel 0 1 2 3;
#X obj 124 523 midiout;
#X msg 45 373 240 \, 120 \, 2 \, 99 \, 114 \, 0 \, 0 \, 15 \, 8 \, 1 \, 114 \, 16 \, 0 \, 15 \, 8 \, 0 \, 114 \, 32 \, 0 \, 15 \, 8 \, 0 \, 114 \, 48 \, 0 \, 15 \, 8 \, 0 \, 117 \, 247;
#X msg 80 404 240 \, 120 \, 2 \, 99 \, 114 \, 0 \, 0 \, 15 \, 8 \, 1 \, 114 \, 16 \, 0 \, 15 \, 8 \, 1 \, 114 \, 32 \, 0 \, 15 \, 8 \, 0 \, 114 \, 48 \, 0 \, 15 \, 8 \, 0 \, 117 \, 247;
#X msg 126 436 240 \, 120 \, 2 \, 99 \, 114 \, 0 \, 0 \, 15 \, 8 \, 1 \, 114 \, 16 \, 0 \, 15 \, 8 \, 1 \, 114 \, 32 \, 0 \, 15 \, 8 \, 1 \, 114 \, 48 \, 0 \, 15 \, 8 \, 0 \, 117 \, 247;
#X msg 158 469 240 \, 120 \, 2 \, 99 \, 114 \, 0 \, 0 \, 15 \, 8 \, 1 \, 114 \, 16 \, 0 \, 15 \, 8 \, 1 \, 114 \, 32 \, 0 \, 15 \, 8 \, 1 \, 114 \, 48 \, 0 \, 15 \, 8 \, 1 \, 117 \, 247;
#X obj 97 126 bng 16 250 50 0 empty empty empty 0 -8 0 10 #fcfcfc #000000 #000000;
#X msg 123 135 stop;
#X msg 171 332 240 \, 71 \, 0 \, 247;
#X obj 652 497 midiout;
#X msg 565 441 240 \, 120 \, 2 \, 99 \, 83 \, 2 \, 98 \, 3 \, 0 \, 16 \, 32 \, 0 \, 1 \, 4 \, 117 \, 247;
#X msg 541 396 240 \, 120 \, 3 \, 108 \, 0 \, 4 \, 1 \, 1 \, 2 \, 1 \, 3 \, 1 \, 4 8 247;
#X msg 605 359 240 120 1 108 21 \, 120 2 99 83 3 71 1 115 0 0 104 101 121 0 117 \, 120 1 115 127 115 127 \, 247;
#X connect 2 0 0 1;
#X connect 3 0 0 1;
#X connect 4 0 0 0;
#X connect 5 0 0 0;
#X connect 6 0 7 0;
#X connect 6 1 7 1;
#X connect 6 2 7 2;
#X connect 8 0 11 0;
#X connect 10 0 8 0;
#X connect 11 0 13 0;
#X connect 12 0 11 1;
#X connect 13 0 9 0;
#X connect 13 0 1 0;
#X connect 14 0 13 1;
#X connect 15 0 12 0;
#X connect 15 0 14 0;
#X connect 16 0 18 0;
#X connect 17 0 20 0;
#X connect 18 0 19 0;
#X connect 18 0 17 0;
#X connect 19 0 1 0;
#X connect 20 0 1 0;
#X connect 21 0 1 0;
#X connect 22 0 18 0;
#X connect 23 0 1 0;
#X connect 24 0 25 0;
#X connect 24 0 27 0;
#X connect 25 0 26 0;
#X connect 26 0 24 1;
#X connect 27 0 31 0;
#X connect 28 0 24 0;
#X connect 29 0 24 0;
#X connect 30 0 29 0;
#X connect 31 0 33 0;
#X connect 31 1 34 0;
#X connect 31 2 35 0;
#X connect 31 3 36 0;
#X connect 33 0 32 0;
#X connect 34 0 32 0;
#X connect 35 0 32 0;
#X connect 36 0 32 0;
#X connect 37 0 30 0;
#X connect 38 0 30 0;
#X connect 39 0 32 0;
#X connect 41 0 40 0;
#X connect 42 0 40 0;
#X connect 43 0 40 0;
