#N canvas 810 544 639 371 10;
#X obj 425 332 midiout;
#X obj 437 213 list fromsymbol;
#X obj 467 292 print;
#X msg 437 186 symbol hello1;
#X obj 456 242 list prepend;
#X msg 537 225 240;
#X obj 465 267 list append;
#X msg 541 255 list 0 247;
#X obj 545 170 loadbang;
#X obj 222 11 bng 16 250 50 0 empty empty empty 0 -8 0 10 #fcfcfc #000000 #000000;
#X obj 249 70 del 5;
#X obj 223 43 metro 100;
#X msg 383 128 240 \, 120 \, 2 \, 71 \, 2 \, 99 \, 108 \, 0 \, 0 \, 20 \, 30 \, 117 \, 247;
#X msg 403 154 240 \, 120 \, 2 \, 71 \, 2 \, 99 \, 108 \, 0 \, 0 \, 40 \, 20 \, 117 \, 247;
#X msg 300 82 240 \, 120 \, 2 \, 99 \, 71 \, 1 \, 114 \, 0 \, 10 \, 20 \, 10 \, 1 \, 117 \, 247;
#X msg 253 16 stop;
#X msg 333 103 240 \, 120 \, 2 \, 99 \, 83 \, 3 \, 71 \, 1 \, 115 \, 0 \, 0 \, 104 \, 101 \, 121 \, 0 \, 117 \, 247;
#X obj 18 295 midiout;
#X obj 652 497 midiout;
#X msg 565 441 240 \, 120 \, 2 \, 99 \, 83 \, 2 \, 98 \, 3 \, 0 \, 16 \, 32 \, 0 \, 1 \, 4 \, 117 \, 247;
#X msg 541 396 240 \, 120 \, 3 \, 108 \, 0 \, 4 \, 1 \, 1 \, 2 \, 1 \, 3 \, 1 \, 4 8 247;
#X msg 605 359 240 120 1 108 21 \, 120 2 99 83 3 71 1 115 0 0 104 101 121 0 117 \, 120 1 115 127 115 127 \, 247;
#X msg 9 229 240 \, 120 \, 2 \, 71 \, 1 \, 99 \, 108 \, 0 \, 0 \, 0 \, 0 \, 0 \, 16 \, 0 \, 32 \, 117 \, 247;
#X msg 26 184 240 \, 120 \, 2 \, 71 \, 2 \, 99 \, 114 \, 0 \, 0 \, 0 \, 0 \, 0 \, 16 \, 0 \, 32 \, 0 \, 1 \, 114 \, 0 \, 32 \, 0 \, 0 \, 0 \, 16 \, 64 \, 0 \, 0 \, 0 \, 117 \, 247;
#X msg 20 62 240 \, 120 \, 3 \, 115 \, 2 \, 28 \, 120 \, 2 \, 71 \, 3 \, 99 \, 114 \, 0 \, 0 \, 0 \, 0 \, 0 \, 16 \, 0 \, 32 \, 0 \, 1 \, 114 \, 0 \, 32 \, 0 \, 0 \, 0 \, 16 \, 64 \, 0 \, 0 \, 0 \, 117 \, 247, f 24;
#X floatatom 243 266 6 0 127 0 - - - 0;
#X msg 105 289 240 \, 120 \, 1 \, 118 \, 0 \, \$1 \, 0 \, 247;
#X msg 114 313 177 \, 0 \, 0 \, 176 \, \$1 \, 0;
#X floatatom 291 268 6 0 127 0 - - - 0;
#X connect 1 0 4 0;
#X connect 3 0 1 0;
#X connect 4 0 6 0;
#X connect 5 0 4 1;
#X connect 6 0 2 0;
#X connect 6 0 0 0;
#X connect 7 0 6 1;
#X connect 8 0 5 0;
#X connect 8 0 7 0;
#X connect 9 0 11 0;
#X connect 10 0 13 0;
#X connect 11 0 12 0;
#X connect 11 0 10 0;
#X connect 12 0 0 0;
#X connect 13 0 0 0;
#X connect 14 0 0 0;
#X connect 15 0 11 0;
#X connect 16 0 0 0;
#X connect 19 0 18 0;
#X connect 20 0 18 0;
#X connect 21 0 18 0;
#X connect 22 0 17 0;
#X connect 23 0 17 0;
#X connect 24 0 17 0;
#X connect 25 0 26 0;
#X connect 26 0 17 0;
#X connect 27 0 17 0;
#X connect 28 0 27 0;
