#N canvas 1048 86 565 344 12;
#X obj 134 270 print;
#X obj 77 270 midiout;
#X obj 177 270 print;
#X msg 292 179 upload img16.txt;
#X msg 292 232 upload img20.txt;
#X msg 4 69 clear \, rect 0 0 10 10 \, fill 30 30 4 4 \, line 0 0 30 30 \, line 0 50 50 50 \, S 1 \, string 0 40 hello@world \, S 2 \, s 0 50 Hello \, xor 1 \, box 0 60 64 8 1 \, send;
#X msg 6 166 scale 1;
#X msg 6 192 scale 2;
#X msg 291 125 upload img8.txt;
#X msg 6 218 scale 3;
#X msg 292 202 clear \, glyph 0 2 16 1 1 24 24 \, send;
#X msg 292 148 clear \, glyph 0 1 5 0 0 24 24 \, send;
#X msg 292 255 clear \, glyph 0 3 24 1 1 24 32 \, send;
#X msg 295 284 upload img34.txt;
#X msg 295 307 clear \, glyph 0 6 30 1 1 10 60 \, send;
#X msg 4 39 clear \, line 10 10 50 5 \, send;
#X msg 5 13 clear \, rect 0 0 64 127 \, send;
#X obj 115 233 oled 2;
#X msg 51 128 clear \, S 2 \, s 0 0 hello \, send;
#X connect 3 0 17 0;
#X connect 4 0 17 0;
#X connect 5 0 17 0;
#X connect 6 0 17 0;
#X connect 7 0 17 0;
#X connect 8 0 17 0;
#X connect 9 0 17 0;
#X connect 10 0 17 0;
#X connect 11 0 17 0;
#X connect 12 0 17 0;
#X connect 13 0 17 0;
#X connect 14 0 17 0;
#X connect 15 0 17 0;
#X connect 16 0 17 0;
#X connect 17 0 0 0;
#X connect 17 0 1 0;
#X connect 17 1 2 0;
#X connect 18 0 17 0;
