#N canvas 1063 223 450 324 12;
#X obj 114 220 oled 2;
#X obj 86 260 print;
#X obj 213 259 midiout;
#X msg 81 145 clear \, line 10 10 50 5 \, send;
#X obj 173 283 print;
#X msg 127 172 upload img16.txt;
#X msg 254 180 upload img20.txt;
#X msg 4 69 clear \, rect 0 0 10 10 \, fill 30 30 4 4 \, line 0 0 30 30 \, line 0 50 50 50 \, S 1 \, string 0 40 hello@world \, S 2 \, s 0 50 Hello \, xor 1 \, box 0 60 64 8 1 \, send;
#X msg 44 204 scale 1;
#X msg 53 232 scale 2;
#X msg 183 213 clear \, glyph 0 2 8 1 1 24 24 \, send;
#X connect 0 0 1 0;
#X connect 0 0 2 0;
#X connect 0 1 4 0;
#X connect 3 0 0 0;
#X connect 5 0 0 0;
#X connect 6 0 0 0;
#X connect 7 0 0 0;
#X connect 8 0 0 0;
#X connect 9 0 0 0;
#X connect 10 0 0 0;
