#N canvas 429 25 988 755 12;
#X msg 231 177 deactivate;
#X msg 231 152 activate;
#X floatatom 89 175 5 0 0 0 - - - 0;
#X obj 165 766 dac~;
#X obj 124 321 adc~;
#X obj 226 -25 notein;
#X obj 224 9 pack f f;
#X obj 289 9 print [note][vel][ch];
#X obj 165 687 *~ 1;
#X msg 271 222 clean;
#X msg 611 -93 \; pd dsp 1;
#X obj 610 -117 loadbang;
#X obj 289 -13 spigot;
#X obj 321 -47 tgl 19 0 empty empty empty 0 -10 0 12 #fcfcfc #000000 #000000 0 1;
#X text 33 123 Global QuanTick Len;
#X msg 383 176 deactivate;
#X msg 383 151 activate;
#X obj 217 501 *~ 1;
#X obj 345 500 *~ 1;
#X obj 345 378 s QT;
#X obj 88 149 r QT;
#X msg 419 222 clean;
#X msg 539 183 deactivate;
#X msg 539 158 activate;
#X msg 575 229 clean;
#X obj 18 667 plonk~ 2000;
#X obj 435 61 mapper 39;
#X floatatom 233 381 5 0 0 0 - - - 0;
#X floatatom 258 402 5 0 0 0 - - - 0;
#X floatatom 285 382 5 0 0 0 - - - 0;
#X floatatom 308 404 5 0 0 0 - - - 0;
#X obj 6 193 bng 19 250 50 0 empty empty empty 0 -10 0 12 #fcfcfc #000000 #000000;
#X obj 235 323 bank~ 1;
#X obj 389 322 bank~ 2, f 8;
#X obj 547 315 bank~ 3, f 8;
#X obj 128 358 +~;
#X msg -27 -34 40 1;
#X msg -21 -12 40 0;
#X msg 6 266 debug_info;
#X msg 589 208 delete;
#X msg 432 198 delete;
#X msg 289 197 delete;
#X obj 234 353 unpack f f f f f;
#X obj 5 243 s QT;
#X msg 6 218 0;
#X obj 498 375 s QT;
#X floatatom 386 378 5 0 0 0 - - - 0;
#X floatatom 411 399 5 0 0 0 - - - 0;
#X floatatom 438 379 5 0 0 0 - - - 0;
#X floatatom 461 401 5 0 0 0 - - - 0;
#X obj 387 350 unpack f f f f f;
#X obj 656 373 s QT;
#X floatatom 544 376 5 0 0 0 - - - 0;
#X floatatom 569 397 5 0 0 0 - - - 0;
#X floatatom 596 377 5 0 0 0 - - - 0;
#X floatatom 619 399 5 0 0 0 - - - 0;
#X obj 545 348 unpack f f f f f;
#X obj 478 500 *~ 1;
#X obj 69 -130 key;
#X obj 99 -130 keyup;
#X obj 227 -99 spigot;
#X obj 259 -133 tgl 19 0 empty empty empty 0 -10 0 12 #fcfcfc #000000 #000000 0 1;
#X obj 227 -77 print [key];
#X msg 112 -34 39 1;
#X msg 118 -12 39 0;
#X obj 104 -91 sel 122;
#X obj 112 -67 sel 122;
#X obj -21 -90 sel 49;
#X obj -13 -66 sel 49;
#X text -34 19 1 key;
#X text 116 21 z key;
#X msg 1020 718 unlatch;
#X floatatom 979 664 5 0 0 0 - - - 0;
#X floatatom 432 439 5 0 0 0 - - - 0;
#X floatatom 547 434 5 0 0 0 - - - 0;
#X obj 38 -93 sel 50;
#X obj 46 -69 sel 50;
#X msg 32 -37 41 1;
#X msg 38 -15 41 0;
#X text 36 16 2 key;
#X obj 1020 695 sel 0;
#X obj 977 703 bang;
#X obj 978 754 noteout;
#X msg 977 728 39;
#X obj 831 721 spigot;
#X obj 859 756 noteout;
#X msg 876 691 1;
#X msg 909 691 0;
#X obj 846 657 t b b;
#X obj 893 657 t b b;
#X obj 839 560 ticker;
#X obj 817 506 r QT;
#X obj 838 584 bng 19 50 50 0 empty empty empty 0 -10 0 12 #fcfcfc #000000 #000000;
#X msg 856 506 reset;
#X obj 890 720 == 0;
#X msg 841 691 39;
#X obj 873 628 del 50;
#X msg 817 533 \$1 \, start \, div 1;
#X obj 29 640 spigot;
#X obj 90 633 tgl 19 0 empty empty empty 0 -10 0 12 #fcfcfc #000000 #000000 0 1;
#X msg 696 179 deactivate;
#X msg 696 154 activate;
#X msg 732 225 clean;
#X msg 746 204 delete;
#X obj 813 369 s QT;
#X floatatom 701 372 5 0 0 0 - - - 0;
#X floatatom 726 393 5 0 0 0 - - - 0;
#X floatatom 753 373 5 0 0 0 - - - 0;
#X floatatom 776 395 5 0 0 0 - - - 0;
#X obj 702 344 unpack f f f f f;
#X floatatom 704 430 5 0 0 0 - - - 0;
#X obj 673 498 *~ 1;
#X obj 250 60 mapper 40 41 42 43;
#X obj 951 623 loadbang;
#X obj 17 693 *~ 0.7;
#X obj 319 704 writesf~;
#X msg 321 650 open sesh.wav;
#X msg 340 674 start;
#X msg 389 675 stop;
#X obj 704 311 bank~ 4, f 8;
#X floatatom 273 443 5 0 0 0 - - - 0;
#X obj 685 57 t b b;
#X obj 703 -4 loadbang;
#X obj 1129 229 metro 500;
#X msg 1138 272 1;
#X msg 1171 272 0;
#X obj 1176 251 del 50;
#X msg 1163 197 stop;
#X msg 1112 196 bang;
#X floatatom 1140 295 5 0 0 0 - - - 0;
#X obj 970 535 noteout;
#X obj 1047 417 spigot;
#X floatatom 999 511 5 0 0 0 - - - 0;
#X msg 1059 444 1;
#X msg 1059 464 0;
#X msg 994 487 1;
#X obj 963 441 t b b;
#X msg 963 487 0;
#X obj 986 465 del 200;
#X obj 1006 442 t b b;
#X msg 965 511 40;
#X obj 962 417 sel 0 1 2 3;
#X obj 1111 535 noteout;
#X obj 1188 417 spigot;
#X floatatom 1140 511 5 0 0 0 - - - 0;
#X msg 1199 442 1;
#X msg 1200 464 0;
#X msg 1135 487 1;
#X obj 1104 441 t b b;
#X msg 1104 487 0;
#X obj 1127 465 del 200;
#X obj 1147 442 t b b;
#X obj 1103 417 sel 0 1 2 3;
#X obj 1250 534 noteout;
#X obj 1327 416 spigot;
#X floatatom 1279 510 5 0 0 0 - - - 0;
#X msg 1338 441 1;
#X msg 1339 463 0;
#X msg 1274 486 1;
#X obj 1243 440 t b b;
#X msg 1243 486 0;
#X obj 1266 464 del 200;
#X obj 1286 441 t b b;
#X obj 1242 416 sel 0 1 2 3;
#X obj 1387 534 noteout;
#X obj 1464 416 spigot;
#X floatatom 1416 510 5 0 0 0 - - - 0;
#X msg 1475 441 1;
#X msg 1476 463 0;
#X msg 1411 486 1;
#X obj 1380 440 t b b;
#X msg 1380 486 0;
#X obj 1403 464 del 200;
#X obj 1423 441 t b b;
#X obj 1379 416 sel 0 1 2 3;
#X msg 1106 511 41;
#X msg 1245 510 42;
#X msg 1382 510 43;
#X msg 944 309 0;
#X obj 1104 145 loadbang;
#X obj 936 256 r QT;
#X obj 938 281 sel 0;
#X connect 0 0 32 0;
#X connect 1 0 32 0;
#X connect 2 0 32 3;
#X connect 2 0 33 3;
#X connect 2 0 34 3;
#X connect 2 0 119 3;
#X connect 4 0 35 0;
#X connect 4 1 35 1;
#X connect 5 0 6 0;
#X connect 5 1 6 1;
#X connect 6 0 12 0;
#X connect 6 0 26 0;
#X connect 6 0 112 0;
#X connect 8 0 3 0;
#X connect 8 0 3 1;
#X connect 8 0 115 0;
#X connect 9 0 32 0;
#X connect 11 0 10 0;
#X connect 12 0 7 0;
#X connect 13 0 12 1;
#X connect 15 0 33 0;
#X connect 16 0 33 0;
#X connect 17 0 8 0;
#X connect 18 0 8 0;
#X connect 20 0 2 0;
#X connect 21 0 33 0;
#X connect 22 0 34 0;
#X connect 23 0 34 0;
#X connect 24 0 34 0;
#X connect 25 0 114 0;
#X connect 26 0 34 2;
#X connect 26 0 33 2;
#X connect 26 0 32 2;
#X connect 26 0 119 2;
#X connect 30 0 141 0;
#X connect 31 0 9 0;
#X connect 31 0 21 0;
#X connect 31 0 24 0;
#X connect 31 0 44 0;
#X connect 31 0 93 0;
#X connect 31 0 102 0;
#X connect 32 0 17 0;
#X connect 32 1 72 0;
#X connect 32 1 120 0;
#X connect 32 2 42 0;
#X connect 33 0 18 0;
#X connect 33 1 73 0;
#X connect 33 1 72 0;
#X connect 33 2 50 0;
#X connect 34 0 57 0;
#X connect 34 1 74 0;
#X connect 34 1 72 0;
#X connect 34 2 56 0;
#X connect 35 0 32 0;
#X connect 35 0 33 0;
#X connect 35 0 34 0;
#X connect 35 0 3 1;
#X connect 35 0 3 0;
#X connect 35 0 119 0;
#X connect 36 0 112 0;
#X connect 37 0 112 0;
#X connect 38 0 32 0;
#X connect 38 0 33 0;
#X connect 38 0 34 0;
#X connect 38 0 90 0;
#X connect 38 0 119 0;
#X connect 39 0 34 0;
#X connect 40 0 33 0;
#X connect 41 0 32 0;
#X connect 42 0 27 0;
#X connect 42 1 28 0;
#X connect 42 2 29 0;
#X connect 42 3 30 0;
#X connect 42 4 19 0;
#X connect 44 0 43 0;
#X connect 49 0 152 0;
#X connect 50 0 46 0;
#X connect 50 1 47 0;
#X connect 50 2 48 0;
#X connect 50 3 49 0;
#X connect 50 4 45 0;
#X connect 55 0 163 0;
#X connect 56 0 52 0;
#X connect 56 1 53 0;
#X connect 56 2 54 0;
#X connect 56 3 55 0;
#X connect 56 4 51 0;
#X connect 57 0 8 0;
#X connect 58 0 60 0;
#X connect 58 0 65 0;
#X connect 58 0 67 0;
#X connect 58 0 75 0;
#X connect 59 0 66 0;
#X connect 59 0 68 0;
#X connect 59 0 76 0;
#X connect 60 0 62 0;
#X connect 61 0 60 1;
#X connect 63 0 26 0;
#X connect 63 0 112 0;
#X connect 64 0 26 0;
#X connect 64 0 112 0;
#X connect 65 0 63 0;
#X connect 66 0 64 0;
#X connect 67 0 36 0;
#X connect 68 0 37 0;
#X connect 71 0 32 0;
#X connect 71 0 33 0;
#X connect 71 0 34 0;
#X connect 72 0 80 0;
#X connect 72 0 82 1;
#X connect 72 0 81 0;
#X connect 72 0 94 0;
#X connect 75 0 77 0;
#X connect 76 0 78 0;
#X connect 77 0 112 0;
#X connect 78 0 112 0;
#X connect 80 0 71 0;
#X connect 81 0 83 0;
#X connect 83 0 82 0;
#X connect 84 0 85 0;
#X connect 86 0 85 1;
#X connect 87 0 85 1;
#X connect 88 0 95 0;
#X connect 88 1 86 0;
#X connect 89 0 95 0;
#X connect 89 1 87 0;
#X connect 90 0 92 0;
#X connect 90 1 96 0;
#X connect 90 1 88 0;
#X connect 91 0 97 0;
#X connect 92 0 98 0;
#X connect 93 0 90 0;
#X connect 94 0 84 1;
#X connect 95 0 84 0;
#X connect 96 0 89 0;
#X connect 97 0 90 0;
#X connect 98 0 25 0;
#X connect 99 0 98 1;
#X connect 100 0 119 0;
#X connect 101 0 119 0;
#X connect 102 0 119 0;
#X connect 103 0 119 0;
#X connect 108 0 174 0;
#X connect 109 0 105 0;
#X connect 109 1 106 0;
#X connect 109 2 107 0;
#X connect 109 3 108 0;
#X connect 109 4 104 0;
#X connect 111 0 8 0;
#X connect 112 0 32 1;
#X connect 112 1 33 1;
#X connect 112 2 34 1;
#X connect 112 3 119 1;
#X connect 113 0 72 0;
#X connect 114 0 3 1;
#X connect 114 0 3 0;
#X connect 116 0 115 0;
#X connect 117 0 115 0;
#X connect 118 0 115 0;
#X connect 119 0 111 0;
#X connect 119 1 110 0;
#X connect 119 2 109 0;
#X connect 121 0 31 0;
#X connect 121 1 101 0;
#X connect 121 1 23 0;
#X connect 121 1 16 0;
#X connect 121 1 1 0;
#X connect 122 0 121 0;
#X connect 123 0 126 0;
#X connect 123 0 124 0;
#X connect 124 0 129 0;
#X connect 125 0 129 0;
#X connect 126 0 125 0;
#X connect 127 0 123 0;
#X connect 128 0 123 0;
#X connect 129 0 131 0;
#X connect 129 0 143 0;
#X connect 129 0 154 0;
#X connect 129 0 165 0;
#X connect 131 0 132 0;
#X connect 132 0 130 1;
#X connect 132 0 140 0;
#X connect 133 0 131 1;
#X connect 134 0 131 1;
#X connect 135 0 132 0;
#X connect 136 0 137 0;
#X connect 136 1 134 0;
#X connect 137 0 132 0;
#X connect 138 0 135 0;
#X connect 139 0 138 0;
#X connect 139 1 134 0;
#X connect 140 0 130 0;
#X connect 141 0 136 0;
#X connect 141 1 133 0;
#X connect 141 2 139 0;
#X connect 141 3 133 0;
#X connect 143 0 144 0;
#X connect 144 0 142 1;
#X connect 144 0 175 0;
#X connect 145 0 143 1;
#X connect 146 0 143 1;
#X connect 147 0 144 0;
#X connect 148 0 149 0;
#X connect 148 1 146 0;
#X connect 149 0 144 0;
#X connect 150 0 147 0;
#X connect 151 0 150 0;
#X connect 151 1 146 0;
#X connect 152 0 148 0;
#X connect 152 1 145 0;
#X connect 152 2 151 0;
#X connect 152 3 145 0;
#X connect 154 0 155 0;
#X connect 155 0 153 1;
#X connect 155 0 176 0;
#X connect 156 0 154 1;
#X connect 157 0 154 1;
#X connect 158 0 155 0;
#X connect 159 0 160 0;
#X connect 159 1 157 0;
#X connect 160 0 155 0;
#X connect 161 0 158 0;
#X connect 162 0 161 0;
#X connect 162 1 157 0;
#X connect 163 0 159 0;
#X connect 163 1 156 0;
#X connect 163 2 162 0;
#X connect 163 3 156 0;
#X connect 165 0 166 0;
#X connect 166 0 164 1;
#X connect 166 0 177 0;
#X connect 167 0 165 1;
#X connect 168 0 165 1;
#X connect 169 0 166 0;
#X connect 170 0 171 0;
#X connect 170 1 168 0;
#X connect 171 0 166 0;
#X connect 172 0 169 0;
#X connect 173 0 172 0;
#X connect 173 1 168 0;
#X connect 174 0 170 0;
#X connect 174 1 167 0;
#X connect 174 2 173 0;
#X connect 174 3 167 0;
#X connect 175 0 142 0;
#X connect 176 0 153 0;
#X connect 177 0 164 0;
#X connect 178 0 141 0;
#X connect 178 0 152 0;
#X connect 178 0 163 0;
#X connect 178 0 174 0;
#X connect 179 0 128 0;
#X connect 179 0 178 0;
#X connect 180 0 181 0;
#X connect 181 0 178 0;
