#N canvas 429 25 988 755 12;
#X msg 231 177 deactivate;
#X msg 231 152 activate;
#X floatatom 89 175 5 0 0 0 - - - 0;
#X obj 165 766 dac~;
#X obj 124 321 adc~;
#X obj 226 -25 notein;
#X obj 224 9 pack f f;
#X obj 289 9 print [note][vel][ch];
#X obj 165 687 *~ 1;
#X msg 271 222 clean;
#X msg 611 -93 \; pd dsp 1;
#X obj 610 -117 loadbang;
#X obj 289 -13 spigot;
#X obj 321 -47 tgl 19 0 empty empty empty 0 -10 0 12 #fcfcfc #000000 #000000 0 1;
#X text 33 123 Global QuanTick Len;
#X msg 383 176 deactivate;
#X msg 383 151 activate;
#X obj 217 501 *~ 1;
#X obj 345 500 *~ 1;
#X obj 345 378 s QT;
#X obj 88 149 r QT;
#X msg 419 222 clean;
#X msg 539 183 deactivate;
#X msg 539 158 activate;
#X msg 575 229 clean;
#X obj 18 667 plonk~ 2000;
#X floatatom 233 381 5 0 0 0 - - - 0;
#X floatatom 258 402 5 0 0 0 - - - 0;
#X floatatom 285 382 5 0 0 0 - - - 0;
#X floatatom 308 404 5 0 0 0 - - - 0;
#X obj 6 193 bng 19 250 50 0 empty empty empty 0 -10 0 12 #fcfcfc #000000 #000000;
#X obj 235 323 bank~ 1;
#X obj 389 322 bank~ 2, f 8;
#X obj 547 315 bank~ 3, f 8;
#X obj 128 358 +~;
#X msg 6 266 debug_info;
#X msg 589 208 delete;
#X msg 432 198 delete;
#X msg 289 197 delete;
#X obj 234 353 unpack f f f f f;
#X obj 5 243 s QT;
#X msg 6 218 0;
#X obj 498 375 s QT;
#X floatatom 386 378 5 0 0 0 - - - 0;
#X floatatom 411 399 5 0 0 0 - - - 0;
#X floatatom 438 379 5 0 0 0 - - - 0;
#X floatatom 461 401 5 0 0 0 - - - 0;
#X obj 387 350 unpack f f f f f;
#X obj 656 373 s QT;
#X floatatom 544 376 5 0 0 0 - - - 0;
#X floatatom 569 397 5 0 0 0 - - - 0;
#X floatatom 596 377 5 0 0 0 - - - 0;
#X floatatom 619 399 5 0 0 0 - - - 0;
#X obj 545 348 unpack f f f f f;
#X obj 478 500 *~ 1;
#X obj 227 -99 spigot;
#X obj 259 -133 tgl 19 0 empty empty empty 0 -10 0 12 #fcfcfc #000000 #000000 0 1;
#X obj 227 -77 print [key];
#X msg 1020 718 unlatch;
#X floatatom 979 664 5 0 0 0 - - - 0;
#X floatatom 432 439 5 0 0 0 - - - 0;
#X floatatom 547 434 5 0 0 0 - - - 0;
#X obj 1020 695 sel 0;
#X obj 977 703 bang;
#X obj 978 754 noteout;
#X msg 977 728 39;
#X obj 859 756 noteout;
#X msg 876 691 1;
#X msg 909 691 0;
#X obj 846 657 t b b;
#X obj 893 657 t b b;
#X obj 839 560 ticker;
#X obj 817 506 r QT;
#X obj 838 584 bng 19 50 50 0 empty empty empty 0 -10 0 12 #fcfcfc #000000 #000000;
#X msg 856 506 reset;
#X obj 873 628 del 50;
#X msg 817 533 \$1 \, start \, div 1;
#X obj 29 640 spigot;
#X obj 90 633 tgl 19 0 empty empty empty 0 -10 0 12 #fcfcfc #000000 #000000 0 1;
#X msg 696 179 deactivate;
#X msg 696 154 activate;
#X msg 732 225 clean;
#X msg 746 204 delete;
#X obj 813 369 s QT;
#X floatatom 701 372 5 0 0 0 - - - 0;
#X floatatom 726 393 5 0 0 0 - - - 0;
#X floatatom 753 373 5 0 0 0 - - - 0;
#X floatatom 776 395 5 0 0 0 - - - 0;
#X obj 702 344 unpack f f f f f;
#X floatatom 704 430 5 0 0 0 - - - 0;
#X obj 673 498 *~ 1;
#X obj 951 623 loadbang;
#X obj 17 693 *~ 0.7;
#X obj 319 704 writesf~;
#X msg 321 650 open sesh.wav;
#X msg 340 674 start;
#X msg 389 675 stop;
#X obj 704 311 bank~ 4, f 8;
#X floatatom 273 443 5 0 0 0 - - - 0;
#X obj 685 57 t b b;
#X obj 703 -4 loadbang;
#X msg 1143 334 1;
#X msg 1176 334 0;
#X obj 1181 313 del 50;
#X floatatom 1145 357 5 0 0 0 - - - 0;
#X obj 1646 595 noteout;
#X floatatom 1675 571 5 0 0 0 - - - 0;
#X obj 1104 145 loadbang;
#X obj 936 256 r QT;
#X obj 938 281 sel 0;
#X obj 435 61 mapper 39;
#X obj 250 60 mapper 35 36 37 38;
#X obj 526 33 mapper 40 41 42 43;
#X obj 129 45 mapper 44;
#X msg 841 704 44;
#X msg 1641 571 43;
#X msg 1633 527 0;
#X msg 1670 528 1;
#X obj 1604 486 sel -1 0 1 2 3;
#X floatatom 1609 463 5 0 0 0 - - - 0;
#X obj 1145 288 bng 19 250 50 0 empty empty empty 0 -10 0 12 #fcfcfc #000000 #000000;
#X obj 1503 595 noteout;
#X floatatom 1532 571 5 0 0 0 - - - 0;
#X msg 1490 527 0;
#X msg 1527 528 1;
#X obj 1461 486 sel -1 0 1 2 3;
#X floatatom 1466 463 5 0 0 0 - - - 0;
#X obj 1356 584 noteout;
#X obj 1402 644 spigot;
#X floatatom 1385 560 5 0 0 0 - - - 0;
#X msg 1343 516 0;
#X msg 1380 517 1;
#X obj 1314 475 sel -1 0 1 2 3;
#X obj 1348 745 noteout;
#X floatatom 1377 721 5 0 0 0 - - - 0;
#X msg 1344 686 0;
#X msg 1379 685 1;
#X floatatom 1319 452 5 0 0 0 - - - 0;
#X msg 1304 685 1;
#X obj 1306 660 del 10;
#X obj 1199 578 noteout;
#X floatatom 1228 554 5 0 0 0 - - - 0;
#X msg 1186 510 0;
#X msg 1223 511 1;
#X obj 1157 469 sel -1 0 1 2 3;
#X floatatom 1162 446 5 0 0 0 - - - 0;
#X msg 1194 554 40;
#X msg 1343 721 36;
#X msg 1351 560 41;
#X msg 1498 571 42;
#X msg 944 309 -1;
#X obj 1310 609 sel -1 0 1 2 3;
#X obj 1147 238 metro 500;
#X msg 1166 197 bang;
#X obj 1246 641 spigot;
#X obj 1192 742 noteout;
#X floatatom 1221 718 5 0 0 0 - - - 0;
#X msg 1188 683 0;
#X msg 1223 682 1;
#X msg 1148 682 1;
#X obj 1150 657 del 10;
#X obj 1154 606 sel -1 0 1 2 3;
#X obj 1553 652 spigot;
#X obj 1499 753 noteout;
#X floatatom 1528 729 5 0 0 0 - - - 0;
#X msg 1495 694 0;
#X msg 1530 693 1;
#X msg 1455 693 1;
#X obj 1457 668 del 10;
#X obj 1461 617 sel -1 0 1 2 3;
#X obj 1705 653 spigot;
#X obj 1651 754 noteout;
#X floatatom 1680 730 5 0 0 0 - - - 0;
#X msg 1647 695 0;
#X msg 1682 694 1;
#X msg 1607 694 1;
#X obj 1609 669 del 10;
#X obj 1613 618 sel -1 0 1 2 3;
#X msg 1187 718 35;
#X msg 1494 729 37;
#X msg 1646 730 38;
#X connect 0 0 31 0;
#X connect 1 0 31 0;
#X connect 2 0 31 3;
#X connect 2 0 32 3;
#X connect 2 0 33 3;
#X connect 2 0 97 3;
#X connect 4 0 34 0;
#X connect 4 1 34 1;
#X connect 5 0 6 0;
#X connect 5 1 6 1;
#X connect 6 0 12 0;
#X connect 6 0 110 0;
#X connect 6 0 111 0;
#X connect 6 0 112 0;
#X connect 6 0 113 0;
#X connect 8 0 3 0;
#X connect 8 0 3 1;
#X connect 8 0 93 0;
#X connect 9 0 31 0;
#X connect 11 0 10 0;
#X connect 12 0 7 0;
#X connect 13 0 12 1;
#X connect 15 0 32 0;
#X connect 16 0 32 0;
#X connect 17 0 8 0;
#X connect 18 0 8 0;
#X connect 20 0 2 0;
#X connect 21 0 32 0;
#X connect 22 0 33 0;
#X connect 23 0 33 0;
#X connect 24 0 33 0;
#X connect 25 0 92 0;
#X connect 29 0 145 0;
#X connect 30 0 9 0;
#X connect 30 0 21 0;
#X connect 30 0 24 0;
#X connect 30 0 41 0;
#X connect 30 0 74 0;
#X connect 30 0 81 0;
#X connect 31 0 17 0;
#X connect 31 1 59 0;
#X connect 31 1 98 0;
#X connect 31 2 39 0;
#X connect 32 0 18 0;
#X connect 32 1 60 0;
#X connect 32 1 59 0;
#X connect 32 2 47 0;
#X connect 33 0 54 0;
#X connect 33 1 61 0;
#X connect 33 1 59 0;
#X connect 33 2 53 0;
#X connect 34 0 31 0;
#X connect 34 0 32 0;
#X connect 34 0 33 0;
#X connect 34 0 3 1;
#X connect 34 0 3 0;
#X connect 34 0 97 0;
#X connect 35 0 31 0;
#X connect 35 0 32 0;
#X connect 35 0 33 0;
#X connect 35 0 71 0;
#X connect 35 0 97 0;
#X connect 36 0 33 0;
#X connect 37 0 32 0;
#X connect 38 0 31 0;
#X connect 39 0 26 0;
#X connect 39 1 27 0;
#X connect 39 2 28 0;
#X connect 39 3 29 0;
#X connect 39 4 19 0;
#X connect 41 0 40 0;
#X connect 46 0 137 0;
#X connect 47 0 43 0;
#X connect 47 1 44 0;
#X connect 47 2 45 0;
#X connect 47 3 46 0;
#X connect 47 4 42 0;
#X connect 52 0 126 0;
#X connect 53 0 49 0;
#X connect 53 1 50 0;
#X connect 53 2 51 0;
#X connect 53 3 52 0;
#X connect 53 4 48 0;
#X connect 54 0 8 0;
#X connect 55 0 57 0;
#X connect 56 0 55 1;
#X connect 58 0 31 0;
#X connect 58 0 32 0;
#X connect 58 0 33 0;
#X connect 59 0 62 0;
#X connect 59 0 64 1;
#X connect 59 0 63 0;
#X connect 62 0 58 0;
#X connect 63 0 65 0;
#X connect 65 0 64 0;
#X connect 67 0 66 1;
#X connect 68 0 66 1;
#X connect 69 0 114 0;
#X connect 69 1 67 0;
#X connect 70 0 114 0;
#X connect 70 1 68 0;
#X connect 71 0 73 0;
#X connect 71 1 75 0;
#X connect 71 1 69 0;
#X connect 72 0 76 0;
#X connect 73 0 77 0;
#X connect 74 0 71 0;
#X connect 75 0 70 0;
#X connect 76 0 71 0;
#X connect 77 0 25 0;
#X connect 78 0 77 1;
#X connect 79 0 97 0;
#X connect 80 0 97 0;
#X connect 81 0 97 0;
#X connect 82 0 97 0;
#X connect 87 0 119 0;
#X connect 88 0 84 0;
#X connect 88 1 85 0;
#X connect 88 2 86 0;
#X connect 88 3 87 0;
#X connect 88 4 83 0;
#X connect 90 0 8 0;
#X connect 91 0 59 0;
#X connect 92 0 3 1;
#X connect 92 0 3 0;
#X connect 94 0 93 0;
#X connect 95 0 93 0;
#X connect 96 0 93 0;
#X connect 97 0 90 0;
#X connect 97 1 89 0;
#X connect 97 2 88 0;
#X connect 99 0 30 0;
#X connect 99 1 80 0;
#X connect 99 1 23 0;
#X connect 99 1 16 0;
#X connect 99 1 1 0;
#X connect 100 0 99 0;
#X connect 101 0 104 0;
#X connect 102 0 104 0;
#X connect 103 0 102 0;
#X connect 104 0 128 0;
#X connect 104 0 154 0;
#X connect 104 0 162 0;
#X connect 104 0 170 0;
#X connect 106 0 105 1;
#X connect 106 0 115 0;
#X connect 107 0 150 0;
#X connect 107 0 152 0;
#X connect 108 0 109 0;
#X connect 109 0 150 0;
#X connect 110 0 33 2;
#X connect 110 0 32 2;
#X connect 110 0 31 2;
#X connect 110 0 97 2;
#X connect 111 0 31 1;
#X connect 111 1 32 1;
#X connect 111 2 33 1;
#X connect 111 3 97 1;
#X connect 112 0 38 0;
#X connect 112 1 37 0;
#X connect 112 2 36 0;
#X connect 112 3 82 0;
#X connect 113 0 30 0;
#X connect 114 0 66 0;
#X connect 115 0 105 0;
#X connect 116 0 106 0;
#X connect 117 0 106 0;
#X connect 118 0 116 0;
#X connect 118 1 117 0;
#X connect 118 2 117 0;
#X connect 118 3 117 0;
#X connect 118 4 117 0;
#X connect 119 0 118 0;
#X connect 119 0 177 0;
#X connect 120 0 103 0;
#X connect 120 0 101 0;
#X connect 122 0 121 1;
#X connect 122 0 149 0;
#X connect 123 0 122 0;
#X connect 124 0 122 0;
#X connect 125 0 123 0;
#X connect 125 1 124 0;
#X connect 125 2 124 0;
#X connect 125 3 124 0;
#X connect 125 4 124 0;
#X connect 126 0 125 0;
#X connect 126 0 169 0;
#X connect 128 0 134 0;
#X connect 129 0 127 1;
#X connect 129 0 148 0;
#X connect 130 0 129 0;
#X connect 131 0 129 0;
#X connect 132 0 130 0;
#X connect 132 1 131 0;
#X connect 132 2 131 0;
#X connect 132 3 131 0;
#X connect 132 4 131 0;
#X connect 134 0 133 1;
#X connect 134 0 147 0;
#X connect 135 0 128 1;
#X connect 135 0 134 0;
#X connect 136 0 128 1;
#X connect 137 0 132 0;
#X connect 137 0 151 0;
#X connect 138 0 134 0;
#X connect 139 0 138 0;
#X connect 141 0 140 1;
#X connect 141 0 146 0;
#X connect 142 0 141 0;
#X connect 143 0 141 0;
#X connect 144 0 142 0;
#X connect 144 1 143 0;
#X connect 144 2 143 0;
#X connect 144 3 143 0;
#X connect 144 4 143 0;
#X connect 145 0 144 0;
#X connect 145 0 161 0;
#X connect 146 0 140 0;
#X connect 147 0 133 0;
#X connect 148 0 127 0;
#X connect 149 0 121 0;
#X connect 150 0 145 0;
#X connect 150 0 137 0;
#X connect 150 0 126 0;
#X connect 150 0 119 0;
#X connect 151 0 135 0;
#X connect 151 1 135 0;
#X connect 151 2 136 0;
#X connect 151 3 139 0;
#X connect 151 3 135 0;
#X connect 151 4 136 0;
#X connect 152 0 120 0;
#X connect 153 0 152 0;
#X connect 154 0 156 0;
#X connect 156 0 155 1;
#X connect 156 0 178 0;
#X connect 157 0 154 1;
#X connect 157 0 156 0;
#X connect 158 0 154 1;
#X connect 159 0 156 0;
#X connect 160 0 159 0;
#X connect 161 0 157 0;
#X connect 161 1 157 0;
#X connect 161 2 158 0;
#X connect 161 3 160 0;
#X connect 161 3 157 0;
#X connect 161 4 158 0;
#X connect 162 0 164 0;
#X connect 164 0 163 1;
#X connect 164 0 179 0;
#X connect 165 0 162 1;
#X connect 165 0 164 0;
#X connect 166 0 162 1;
#X connect 167 0 164 0;
#X connect 168 0 167 0;
#X connect 169 0 165 0;
#X connect 169 1 165 0;
#X connect 169 2 166 0;
#X connect 169 3 168 0;
#X connect 169 3 165 0;
#X connect 169 4 166 0;
#X connect 170 0 172 0;
#X connect 172 0 171 1;
#X connect 172 0 180 0;
#X connect 173 0 170 1;
#X connect 173 0 172 0;
#X connect 174 0 170 1;
#X connect 175 0 172 0;
#X connect 176 0 175 0;
#X connect 177 0 173 0;
#X connect 177 1 173 0;
#X connect 177 2 174 0;
#X connect 177 3 176 0;
#X connect 177 3 173 0;
#X connect 177 4 174 0;
#X connect 178 0 155 0;
#X connect 179 0 163 0;
#X connect 180 0 171 0;
