#N canvas 599 50 710 675 12;
#X msg 231 177 deactivate;
#X msg 231 152 activate;
#X floatatom 602 225 5 0 0 0 - - - 0;
#X obj 319 620 dac~;
#X obj 372 535 bng 15 250 50 0 empty empty empty 17 7 0 10 #fcfcfc #000000 #000000;
#X obj 81 248 adc~;
#X obj 226 -25 notein;
#X obj 224 9 pack f f;
#X obj 316 16 print [note][vel][ch];
#X obj 226 78 mapper 40 36;
#X obj 311 553 *~ 1;
#X msg 274 199 clean;
#X msg 6 -20 \; pd dsp 1;
#X obj 5 -44 loadbang;
#X msg 134 33 36 1;
#X msg 140 55 36 0;
#X msg 136 2 40 0;
#X msg 130 -20 40 1;
#X obj 316 -6 spigot;
#X obj 348 -40 tgl 19 0 empty empty empty 0 -10 0 12 #fcfcfc #000000 #000000 0 1;
#X text 546 173 Global QuanTick Len;
#X obj 333 77 mapper 41 37;
#X msg 348 175 deactivate;
#X msg 348 150 activate;
#X obj 228 127 loadbang;
#X obj 361 581 *~ 0.2;
#X obj 217 501 *~ 1;
#X obj 345 500 *~ 1;
#X obj 344 125 loadbang;
#X obj 478 500 *~ 1;
#X obj 228 379 s QT;
#X obj 367 377 s QT;
#X obj 508 379 s QT;
#X obj 601 199 r QT;
#X obj 431 76 mapper 42 38;
#X msg 387 198 clean;
#X msg 463 175 deactivate;
#X msg 463 150 activate;
#X obj 459 125 loadbang;
#X msg 502 198 clean;
#X obj 362 555 plonk~ 2000;
#X obj 539 64 mapper 39;
#X obj 227 348 route q_info s_info;
#X obj 367 349 route q_info s_info;
#X obj 508 349 route q_info s_info;
#X obj 226 402 unpack f f f f f;
#X floatatom 225 430 5 0 0 0 - - - 0;
#X floatatom 250 451 5 0 0 0 - - - 0;
#X floatatom 277 431 5 0 0 0 - - - 0;
#X floatatom 300 453 5 0 0 0 - - - 0;
#X floatatom 327 433 5 0 0 0 - - - 0;
#X obj 138 171 bng 19 250 50 0 empty empty empty 0 -10 0 12 #fcfcfc #000000 #000000;
#X obj 220 320 bank~ 1, f 8;
#X obj 347 322 bank~ 2, f 8;
#X obj 478 322 bank~ 3, f 8;
#X connect 0 0 52 0;
#X connect 1 0 52 0;
#X connect 2 0 52 3;
#X connect 2 0 53 3;
#X connect 2 0 54 3;
#X connect 4 0 40 0;
#X connect 5 0 52 0;
#X connect 5 0 53 0;
#X connect 5 0 54 0;
#X connect 6 0 7 0;
#X connect 6 1 7 1;
#X connect 7 0 9 0;
#X connect 7 0 18 0;
#X connect 7 0 21 0;
#X connect 7 0 34 0;
#X connect 7 0 41 0;
#X connect 9 0 52 1;
#X connect 9 1 52 2;
#X connect 10 0 3 0;
#X connect 11 0 52 0;
#X connect 13 0 12 0;
#X connect 14 0 9 0;
#X connect 15 0 9 0;
#X connect 16 0 9 0;
#X connect 17 0 9 0;
#X connect 18 0 8 0;
#X connect 19 0 18 1;
#X connect 21 0 53 1;
#X connect 21 1 53 2;
#X connect 22 0 53 0;
#X connect 23 0 53 0;
#X connect 24 0 1 0;
#X connect 25 0 3 1;
#X connect 26 0 10 0;
#X connect 27 0 10 0;
#X connect 28 0 23 0;
#X connect 29 0 10 0;
#X connect 33 0 2 0;
#X connect 34 0 54 1;
#X connect 34 1 54 2;
#X connect 35 0 53 0;
#X connect 36 0 54 0;
#X connect 37 0 54 0;
#X connect 38 0 37 0;
#X connect 39 0 54 0;
#X connect 40 0 25 0;
#X connect 42 0 30 0;
#X connect 42 1 45 0;
#X connect 42 1 4 0;
#X connect 43 0 31 0;
#X connect 43 1 4 0;
#X connect 44 0 32 0;
#X connect 44 1 4 0;
#X connect 45 0 46 0;
#X connect 45 1 47 0;
#X connect 45 2 48 0;
#X connect 45 3 49 0;
#X connect 45 4 50 0;
#X connect 51 0 11 0;
#X connect 51 0 35 0;
#X connect 51 0 39 0;
#X connect 52 0 26 0;
#X connect 52 1 42 0;
#X connect 53 0 27 0;
#X connect 53 1 43 0;
#X connect 54 0 29 0;
#X connect 54 1 44 0;
