#N canvas 506 70 710 675 12;
#X msg 231 177 deactivate;
#X msg 231 152 activate;
#X floatatom 602 225 5 0 0 0 - - - 0;
#X obj 319 620 dac~;
#X obj 372 535 bng 15 250 50 0 empty empty empty 17 7 0 10 #fcfcfc #000000 #000000;
#X obj 69 215 adc~;
#X obj 226 -25 notein;
#X obj 224 9 pack f f;
#X obj 316 16 print [note][vel][ch];
#X obj 311 553 *~ 1;
#X msg 274 199 clean;
#X msg 6 -20 \; pd dsp 1;
#X obj 5 -44 loadbang;
#X obj 316 -6 spigot;
#X obj 348 -40 tgl 19 0 empty empty empty 0 -10 0 12 #fcfcfc #000000 #000000 0 1;
#X text 546 173 Global QuanTick Len;
#X msg 348 175 deactivate;
#X msg 348 150 activate;
#X obj 228 127 loadbang;
#X obj 361 581 *~ 0.2;
#X obj 217 501 *~ 1;
#X obj 345 500 *~ 1;
#X obj 344 125 loadbang;
#X obj 345 378 s QT;
#X obj 601 199 r QT;
#X msg 387 198 clean;
#X msg 463 175 deactivate;
#X msg 463 150 activate;
#X obj 459 125 loadbang;
#X msg 502 198 clean;
#X obj 362 555 plonk~ 2000;
#X obj 539 64 mapper 39;
#X floatatom 233 381 5 0 0 0 - - - 0;
#X floatatom 258 402 5 0 0 0 - - - 0;
#X floatatom 285 382 5 0 0 0 - - - 0;
#X floatatom 308 404 5 0 0 0 - - - 0;
#X obj 161 198 bng 19 250 50 0 empty empty empty 0 -10 0 12 #fcfcfc #000000 #000000;
#X obj 220 320 bank~ 1;
#X obj 347 322 bank~ 2, f 8;
#X obj 478 322 bank~ 3, f 8;
#X obj 250 60 mapper 40 41 42 36 37 38;
#X obj 73 252 +~;
#X msg 130 -20 41 1;
#X msg 136 2 41 0;
#X msg 134 33 37 1;
#X msg 140 55 37 0;
#X msg 81 -14 40 1;
#X msg 87 8 40 0;
#X msg 85 39 36 1;
#X msg 91 61 36 0;
#X msg 51 119 debug_info;
#X msg 513 225 delete;
#X msg 397 222 delete;
#X msg 289 222 delete;
#X obj 234 353 unpack f f f f f;
#X obj 160 248 s QT;
#X msg 161 223 0;
#X obj 498 375 s QT;
#X floatatom 386 378 5 0 0 0 - - - 0;
#X floatatom 411 399 5 0 0 0 - - - 0;
#X floatatom 438 379 5 0 0 0 - - - 0;
#X floatatom 461 401 5 0 0 0 - - - 0;
#X obj 387 350 unpack f f f f f;
#X obj 656 373 s QT;
#X floatatom 544 376 5 0 0 0 - - - 0;
#X floatatom 569 397 5 0 0 0 - - - 0;
#X floatatom 596 377 5 0 0 0 - - - 0;
#X floatatom 619 399 5 0 0 0 - - - 0;
#X obj 545 348 unpack f f f f f;
#X obj 478 500 *~ 1;
#X connect 0 0 37 0;
#X connect 1 0 37 0;
#X connect 2 0 37 3;
#X connect 2 0 38 3;
#X connect 2 0 39 3;
#X connect 4 0 30 0;
#X connect 5 0 41 0;
#X connect 5 1 41 1;
#X connect 6 0 7 0;
#X connect 6 1 7 1;
#X connect 7 0 13 0;
#X connect 7 0 31 0;
#X connect 7 0 40 0;
#X connect 9 0 3 0;
#X connect 9 0 3 1;
#X connect 10 0 37 0;
#X connect 12 0 11 0;
#X connect 13 0 8 0;
#X connect 14 0 13 1;
#X connect 16 0 38 0;
#X connect 17 0 38 0;
#X connect 18 0 1 0;
#X connect 19 0 3 1;
#X connect 20 0 9 0;
#X connect 21 0 9 0;
#X connect 22 0 17 0;
#X connect 24 0 2 0;
#X connect 25 0 38 0;
#X connect 26 0 39 0;
#X connect 27 0 39 0;
#X connect 28 0 27 0;
#X connect 29 0 39 0;
#X connect 30 0 19 0;
#X connect 36 0 10 0;
#X connect 36 0 25 0;
#X connect 36 0 29 0;
#X connect 36 0 56 0;
#X connect 37 0 20 0;
#X connect 37 1 54 0;
#X connect 38 0 21 0;
#X connect 38 1 62 0;
#X connect 39 0 69 0;
#X connect 39 1 68 0;
#X connect 40 0 37 1;
#X connect 40 1 38 1;
#X connect 40 2 39 1;
#X connect 40 3 37 2;
#X connect 40 4 38 2;
#X connect 40 5 39 2;
#X connect 41 0 37 0;
#X connect 41 0 38 0;
#X connect 41 0 39 0;
#X connect 41 0 3 1;
#X connect 41 0 3 0;
#X connect 42 0 40 0;
#X connect 43 0 40 0;
#X connect 44 0 40 0;
#X connect 45 0 40 0;
#X connect 46 0 40 0;
#X connect 47 0 40 0;
#X connect 48 0 40 0;
#X connect 49 0 40 0;
#X connect 50 0 37 0;
#X connect 50 0 38 0;
#X connect 50 0 39 0;
#X connect 51 0 39 0;
#X connect 52 0 38 0;
#X connect 53 0 37 0;
#X connect 54 0 32 0;
#X connect 54 1 33 0;
#X connect 54 2 34 0;
#X connect 54 3 35 0;
#X connect 54 4 23 0;
#X connect 56 0 55 0;
#X connect 62 0 58 0;
#X connect 62 1 59 0;
#X connect 62 2 60 0;
#X connect 62 3 61 0;
#X connect 62 4 57 0;
#X connect 68 0 64 0;
#X connect 68 1 65 0;
#X connect 68 2 66 0;
#X connect 68 3 67 0;
#X connect 68 4 63 0;
#X connect 69 0 9 0;
