#N canvas 678 207 710 675 12;
#X msg 7 148 deactivate;
#X msg 7 123 activate;
#X floatatom 202 192 5 0 0 0 - - - 0;
#X obj 104 190 bank 1, f 8;
#X msg 11 -41 t_start, f 9;
#X msg 12 -11 get_pos;
#X obj 32 427 dac~;
#X obj 84 306 bng 15 250 50 0 empty empty empty 17 7 0 10 #fcfcfc #000000 #000000;
#X obj 157 227 unpack f f f f;
#X floatatom 86 233 8 0 0 0 - - - 0;
#X floatatom 157 262 5 0 0 0 - - - 0;
#X floatatom 197 270 5 0 0 0 - - - 0;
#X floatatom 247 277 5 0 0 0 - - - 0;
#X obj 286 280 bng 15 250 50 0 empty empty empty 17 7 0 10 #fcfcfc #000000 #000000;
#X obj 438 60 adc~;
#X obj 86 257 > 0;
#X obj 86 280 sel 1;
#X obj 84 332 plonk~ 900, f 11;
#X msg 13 19 next_slot;
#X msg 12 50 prev_slot;
#X obj 200 -298 notein;
#X obj 19 92 loadbang;
#X obj 198 -264 pack f f;
#X obj 181 -230 print [note][vel][ch];
#X obj 200 -195 mapper 40 36;
#X obj 32 332 *~ 1;
#X text 152 281 state;
#X text 195 291 nstate;
#X text 247 300 tick_action_when;
#X text 260 235 tick_len;
#X msg 132 -3 ctl_top_on;
#X msg 150 20 ctl_top_off;
#X msg 169 44 ctl_bot_on;
#X msg 187 68 ctl_bot_off;
#X msg 11 -68 clean;
#X obj 186 -166 select 1 0;
#X obj 272 -165 select 1 0;
#X obj 537 61 *~;
#X obj 532 89 *~ 0.2;
#X obj 487 13 noise~;
#X obj 542 17 phasor~ 2;
#X msg 28 -223 \; pd dsp 1;
#X obj 31 -260 loadbang;
#X connect 0 0 3 0;
#X connect 1 0 3 0;
#X connect 2 0 3 1;
#X connect 3 0 25 0;
#X connect 3 1 9 0;
#X connect 3 2 8 0;
#X connect 4 0 3 0;
#X connect 5 0 3 0;
#X connect 7 0 17 0;
#X connect 8 0 10 0;
#X connect 8 1 11 0;
#X connect 8 2 12 0;
#X connect 8 2 13 0;
#X connect 8 3 2 0;
#X connect 9 0 15 0;
#X connect 15 0 16 0;
#X connect 16 0 7 0;
#X connect 17 0 6 0;
#X connect 17 0 6 1;
#X connect 18 0 3 0;
#X connect 19 0 3 0;
#X connect 20 0 22 0;
#X connect 20 1 22 1;
#X connect 21 0 1 0;
#X connect 22 0 23 0;
#X connect 22 0 24 0;
#X connect 24 0 35 0;
#X connect 24 1 36 0;
#X connect 25 0 6 0;
#X connect 25 0 6 1;
#X connect 30 0 3 0;
#X connect 31 0 3 0;
#X connect 32 0 3 0;
#X connect 33 0 3 0;
#X connect 34 0 3 0;
#X connect 35 0 30 0;
#X connect 35 1 31 0;
#X connect 36 0 32 0;
#X connect 36 1 33 0;
#X connect 37 0 38 0;
#X connect 38 0 3 0;
#X connect 39 0 37 0;
#X connect 40 0 37 1;
#X connect 42 0 41 0;
