#N canvas 484 449 570 479 12;
#X msg 7 148 deactivate;
#X msg 7 123 activate;
#X floatatom 220 230 5 0 0 0 - - - 0;
#X obj 104 190 bank 1, f 8;
#X msg 11 -41 t_start, f 9;
#X msg 12 -11 get_pos;
#X msg 11 -68 clear;
#X obj 200 410 dac~;
#X obj 131 343 bng 15 250 50 0 empty empty empty 17 7 0 10 #fcfcfc #000000 #000000;
#X obj 60 240 unpack f f f f;
#X floatatom 40 305 8 0 0 0 - - - 0;
#X obj 540 62 osc~;
#X obj 510 -28 osc~ 1;
#X obj 510 2 *~ 40;
#X obj 540 32 +~ 440;
#X obj 534 95 *~ 0.25;
#X floatatom 60 275 5 0 0 0 - - - 0;
#X floatatom 100 275 5 0 0 0 - - - 0;
#X floatatom 140 275 5 0 0 0 - - - 0;
#X obj 140 305 bng 15 250 50 0 empty empty empty 17 7 0 10 #fcfcfc #000000 #000000;
#X obj 477 86 adc~;
#X obj 50 345 > 0;
#X obj 54 375 sel 1;
#X obj 131 369 plonk~ 900, f 11;
#X msg 13 19 next_slot;
#X msg 12 50 prev_slot;
#X obj 110 -294 notein;
#X msg 132 -3 btn_on_start;
#X msg 150 20 btn_off_start;
#X msg 169 44 btn_on_stop;
#X msg 187 67 btn_off_stop;
#X obj 19 92 loadbang;
#X obj 108 -260 pack f f;
#X obj 91 -226 print [note][vel][ch];
#X obj 136 -95 select 0;
#X obj 126 -118 select 1;
#X obj 221 -97 select 0;
#X obj 211 -120 select 1;
#X obj 135 -184 mapper 40 36;
#X connect 0 0 3 0;
#X connect 1 0 3 0;
#X connect 2 0 3 1;
#X connect 3 0 7 0;
#X connect 3 0 7 1;
#X connect 3 1 10 0;
#X connect 3 2 9 0;
#X connect 4 0 3 0;
#X connect 5 0 3 0;
#X connect 6 0 3 0;
#X connect 8 0 23 0;
#X connect 9 0 16 0;
#X connect 9 1 17 0;
#X connect 9 2 18 0;
#X connect 9 2 19 0;
#X connect 9 3 2 0;
#X connect 10 0 21 0;
#X connect 11 0 15 0;
#X connect 12 0 13 0;
#X connect 13 0 14 0;
#X connect 14 0 11 0;
#X connect 20 0 3 0;
#X connect 21 0 22 0;
#X connect 22 0 8 0;
#X connect 23 0 7 0;
#X connect 24 0 3 0;
#X connect 25 0 3 0;
#X connect 26 0 32 0;
#X connect 26 1 32 1;
#X connect 27 0 3 0;
#X connect 28 0 3 0;
#X connect 29 0 3 0;
#X connect 30 0 3 0;
#X connect 31 0 1 0;
#X connect 32 0 33 0;
#X connect 32 0 38 0;
#X connect 34 0 28 0;
#X connect 35 0 27 0;
#X connect 36 0 30 0;
#X connect 37 0 29 0;
#X connect 38 0 34 0;
#X connect 38 0 35 0;
#X connect 38 1 37 0;
#X connect 38 1 36 0;
