#N canvas 314 262 570 479 12;
#X msg 7 148 deactivate;
#X msg 7 123 activate;
#X floatatom 220 230 5 0 0 0 - - - 0;
#X obj 104 190 bank 1, f 8;
#X msg 11 -41 t_start, f 9;
#X msg 12 -11 get_pos;
#X msg 11 -68 clear;
#X obj 200 410 dac~;
#X obj 131 343 bng 15 250 50 0 empty empty empty 17 7 0 10 #fcfcfc #000000 #000000;
#X obj 60 240 unpack f f f f;
#X floatatom 40 305 8 0 0 0 - - - 0;
#X obj 540 62 osc~;
#X obj 510 -28 osc~ 1;
#X obj 510 2 *~ 40;
#X obj 540 32 +~ 440;
#X obj 534 95 *~ 0.25;
#X floatatom 60 275 5 0 0 0 - - - 0;
#X floatatom 100 275 5 0 0 0 - - - 0;
#X floatatom 140 275 5 0 0 0 - - - 0;
#X obj 140 305 bng 15 250 50 0 empty empty empty 17 7 0 10 #fcfcfc #000000 #000000;
#X obj 477 86 adc~;
#X obj 50 345 > 0;
#X obj 54 375 sel 1;
#X obj 131 369 plonk~ 900, f 11;
#X msg 13 19 next_slot;
#X msg 12 50 prev_slot;
#X floatatom 104 -246 5 0 0 0 - - - 0;
#X floatatom 159 -247 5 0 0 0 - - - 0;
#X obj 110 -294 notein;
#X floatatom 205 -249 5 0 0 0 - - - 0;
#X obj 211 -71 bng 19 250 50 0 empty empty empty 0 -10 0 12 #fcfcfc #000000 #000000;
#X obj 235 -71 bng 19 250 50 0 empty empty empty 0 -10 0 12 #fcfcfc #000000 #000000;
#X obj 213 -102 bng 19 250 50 0 empty empty empty 0 -10 0 12 #fcfcfc #000000 #000000;
#X obj 235 -103 bng 19 250 50 0 empty empty empty 0 -10 0 12 #fcfcfc #000000 #000000;
#X obj 82 -176 &&;
#X obj 76 -208 == 36;
#X obj 80 -144 select 1;
#X obj 122 -176 &&;
#X obj 147 -145 select 1;
#X obj 122 -209 > 0;
#X obj 159 -209 == 0;
#X obj 229 -177 &&;
#X obj 227 -145 select 1;
#X obj 269 -177 &&;
#X obj 294 -146 select 1;
#X obj 269 -210 > 0;
#X obj 306 -210 == 0;
#X obj 223 -209 == 40;
#X msg 132 -3 btn_on_start;
#X msg 150 20 btn_off_start;
#X msg 169 44 btn_on_stop;
#X msg 187 67 btn_off_stop;
#X text 265 -103 off states;
#X text 132 -104 on states;
#X obj 19 92 loadbang;
#X connect 0 0 3 0;
#X connect 1 0 3 0;
#X connect 2 0 3 1;
#X connect 3 0 7 0;
#X connect 3 0 7 1;
#X connect 3 1 10 0;
#X connect 3 2 9 0;
#X connect 4 0 3 0;
#X connect 5 0 3 0;
#X connect 6 0 3 0;
#X connect 8 0 23 0;
#X connect 9 0 16 0;
#X connect 9 1 17 0;
#X connect 9 2 18 0;
#X connect 9 2 19 0;
#X connect 9 3 2 0;
#X connect 10 0 21 0;
#X connect 11 0 15 0;
#X connect 12 0 13 0;
#X connect 13 0 14 0;
#X connect 14 0 11 0;
#X connect 15 0 3 0;
#X connect 20 0 3 0;
#X connect 21 0 22 0;
#X connect 22 0 8 0;
#X connect 23 0 7 0;
#X connect 24 0 3 0;
#X connect 25 0 3 0;
#X connect 26 0 35 0;
#X connect 26 0 47 0;
#X connect 27 0 39 0;
#X connect 27 0 40 0;
#X connect 27 0 45 0;
#X connect 27 0 46 0;
#X connect 28 0 26 0;
#X connect 28 1 27 0;
#X connect 28 2 29 0;
#X connect 30 0 50 0;
#X connect 31 0 51 0;
#X connect 32 0 48 0;
#X connect 33 0 49 0;
#X connect 34 0 36 0;
#X connect 35 0 34 0;
#X connect 35 0 37 0;
#X connect 36 0 30 0;
#X connect 37 0 38 0;
#X connect 38 0 31 0;
#X connect 39 0 34 1;
#X connect 40 0 37 1;
#X connect 41 0 42 0;
#X connect 42 0 32 0;
#X connect 43 0 44 0;
#X connect 44 0 33 0;
#X connect 45 0 41 1;
#X connect 46 0 43 1;
#X connect 47 0 41 0;
#X connect 47 0 43 0;
#X connect 48 0 3 0;
#X connect 49 0 3 0;
#X connect 50 0 3 0;
#X connect 51 0 3 0;
#X connect 54 0 1 0;
