#N canvas 879 190 710 675 12;
#X msg 18 49 deactivate;
#X msg 18 24 activate;
#X floatatom 330 320 5 0 0 0 - - -, f 5;
#X obj 220 320 bank 1, f 8;
#X msg 17 102 t_start, f 9;
#X msg 18 132 get_pos;
#X obj 138 565 dac~;
#X obj 200 450 bng 15 250 50 0 empty empty empty 17 7 0 10 #fcfcfc
#000000 #000000;
#X obj 470 410 unpack f f f f;
#X floatatom 472 450 5 0 0 0 - - -, f 5;
#X floatatom 512 460 5 0 0 0 - - -, f 5;
#X floatatom 562 470 5 0 0 0 - - -, f 5;
#X obj 471 135 adc~;
#X obj 190 470 plonk~ 900, f 11;
#X msg 31 275 next_slot;
#X msg 30 306 prev_slot;
#X obj 226 -25 notein;
#X obj 224 9 pack f f;
#X obj 304 31 print [note][vel][ch];
#X obj 226 78 mapper 40 36;
#X obj 138 470 *~ 1;
#X msg 17 75 clean;
#X obj 546 126 *~;
#X obj 541 154 *~ 0.2;
#X obj 496 78 noise~;
#X obj 551 82 phasor~ 2;
#X msg 37 -27 \; pd dsp 1;
#X obj 20 -56 loadbang;
#X msg 154 65 36 1;
#X msg 160 87 36 0;
#X msg 156 34 40 0;
#X msg 150 12 40 1;
#X obj 252 115 print;
#X obj 18 221 select 1;
#X obj 89 221 select 1;
#X obj 304 9 spigot;
#X obj 336 -25 tgl 19 0 empty empty empty 0 -10 0 12 #fcfcfc #000000
#000000 0 1;
#X text 452 470 qaction;
#X text 512 480 qstart;
#X text 562 490 qnext;
#X floatatom 612 480 5 0 0 0 - - -, f 5;
#X text 612 500 qduration;
#X obj 270 360 route q_info s_info;
#X text 270 290 Global QuanTick Len;
#X obj 20 190 mapper 43 39;
#X obj 350 80 mapper 41 37;
#X msg 500 275 deactivate;
#X msg 500 250 activate;
#X obj 410 320 bank 2, f 8;
#X obj 530 220 loadbang;
#X obj 430 360 route q_info s_info;
#X obj 280 450 bng 15 250 50 0 empty empty empty 17 7 0 10 #fcfcfc
#000000 #000000;
#X obj 280 470 plonk~ 1200;
#X obj 230 510 *~ 0.2;
#X connect 0 0 3 0;
#X connect 1 0 3 0;
#X connect 2 0 3 3;
#X connect 2 0 48 3;
#X connect 3 0 20 0;
#X connect 3 1 42 0;
#X connect 4 0 3 0;
#X connect 5 0 3 0;
#X connect 7 0 13 0;
#X connect 8 0 9 0;
#X connect 8 1 10 0;
#X connect 8 2 11 0;
#X connect 8 3 40 0;
#X connect 10 0 7 0;
#X connect 13 0 53 0;
#X connect 14 0 3 0;
#X connect 15 0 3 0;
#X connect 16 0 17 0;
#X connect 16 1 17 1;
#X connect 17 0 19 0;
#X connect 17 0 35 0;
#X connect 17 0 44 0;
#X connect 17 0 45 0;
#X connect 19 0 3 1;
#X connect 19 0 32 0;
#X connect 19 1 3 2;
#X connect 20 0 6 0;
#X connect 20 0 6 1;
#X connect 21 0 3 0;
#X connect 21 0 48 0;
#X connect 22 0 23 0;
#X connect 23 0 3 0;
#X connect 23 0 48 0;
#X connect 24 0 22 0;
#X connect 25 0 22 1;
#X connect 27 0 26 0;
#X connect 27 0 1 0;
#X connect 28 0 19 0;
#X connect 29 0 19 0;
#X connect 30 0 19 0;
#X connect 31 0 19 0;
#X connect 33 0 14 0;
#X connect 34 0 15 0;
#X connect 35 0 18 0;
#X connect 36 0 35 1;
#X connect 42 0 2 0;
#X connect 42 1 51 0;
#X connect 44 0 33 0;
#X connect 44 1 34 0;
#X connect 45 0 48 1;
#X connect 45 1 48 2;
#X connect 46 0 48 0;
#X connect 47 0 48 0;
#X connect 48 0 20 0;
#X connect 48 1 50 0;
#X connect 49 0 47 0;
#X connect 50 0 2 0;
#X connect 50 1 8 0;
#X connect 51 0 52 0;
#X connect 52 0 53 0;
#X connect 53 0 6 1;
#X connect 53 0 6 0;
