#N canvas 600 60 710 675 12;
#X msg 18 49 deactivate;
#X msg 18 24 activate;
#X floatatom 310 226 5 0 0 0 - - - 0;
#X obj 212 224 bank 1, f 8;
#X msg 17 102 t_start, f 9;
#X msg 18 132 get_pos;
#X obj 140 461 dac~;
#X obj 210 340 bng 15 250 50 0 empty empty empty 17 7 0 10 #fcfcfc #000000 #000000;
#X obj 288 260 unpack f f f f;
#X floatatom 288 295 5 0 0 0 - - - 0;
#X floatatom 328 303 5 0 0 0 - - - 0;
#X floatatom 378 310 5 0 0 0 - - - 0;
#X obj 417 313 bng 15 250 50 0 empty empty empty 17 7 0 10 #fcfcfc #000000 #000000;
#X obj 471 135 adc~;
#X obj 192 366 plonk~ 900, f 11;
#X msg 19 162 next_slot;
#X msg 18 193 prev_slot;
#X obj 226 -25 notein;
#X obj 224 9 pack f f;
#X obj 207 43 print [note][vel][ch];
#X obj 226 78 mapper 40 36;
#X obj 140 366 *~ 1;
#X text 283 314 state;
#X text 326 324 nstate;
#X text 378 333 tick_action_when;
#X text 391 268 tick_len;
#X msg 17 75 clean;
#X obj 546 126 *~;
#X obj 541 154 *~ 0.2;
#X obj 496 78 noise~;
#X obj 551 82 phasor~ 2;
#X msg 37 -27 \; pd dsp 1;
#X obj 20 -56 loadbang;
#X msg 108 78 36 1;
#X msg 114 100 36 0;
#X msg 110 47 40 0;
#X msg 104 25 40 1;
#X obj 252 115 print;
#X msg 334 79 set 12;
#X connect 0 0 3 0;
#X connect 1 0 3 0;
#X connect 2 0 3 3;
#X connect 3 0 21 0;
#X connect 3 2 8 0;
#X connect 4 0 3 0;
#X connect 5 0 3 0;
#X connect 7 0 14 0;
#X connect 8 0 9 0;
#X connect 8 1 10 0;
#X connect 8 2 11 0;
#X connect 8 2 12 0;
#X connect 8 3 2 0;
#X connect 14 0 6 0;
#X connect 14 0 6 1;
#X connect 15 0 3 0;
#X connect 16 0 3 0;
#X connect 17 0 18 0;
#X connect 17 1 18 1;
#X connect 18 0 19 0;
#X connect 18 0 20 0;
#X connect 20 0 3 1;
#X connect 20 0 37 0;
#X connect 20 1 3 2;
#X connect 21 0 6 0;
#X connect 21 0 6 1;
#X connect 26 0 3 0;
#X connect 27 0 28 0;
#X connect 28 0 3 0;
#X connect 29 0 27 0;
#X connect 30 0 27 1;
#X connect 32 0 31 0;
#X connect 32 0 1 0;
#X connect 33 0 20 0;
#X connect 34 0 20 0;
#X connect 35 0 20 0;
#X connect 36 0 20 0;
#X connect 38 0 20 0;
