#N canvas 543 424 450 300 12;
#X obj 137 83 notein;
#X obj 134 118 pack f f;
#X obj 134 152 print raw;
#X obj 227 150 print map;
#X obj 223 115 mapper 38 42;
#X msg 218 73 38 2;
#X msg 266 76 38 0;
#X msg 326 76 set 39 4;
#X msg 330 99 change 0 38;
#X connect 0 0 1 0;
#X connect 0 1 1 1;
#X connect 1 0 4 0;
#X connect 1 0 2 0;
#X connect 4 0 3 0;
#X connect 4 1 3 0;
#X connect 5 0 4 0;
#X connect 6 0 4 0;
#X connect 7 0 4 0;
#X connect 8 0 4 0;
