#N canvas 543 424 450 300 12;
#X obj 137 83 notein;
#X obj 134 118 pack f f;
#X obj 134 152 print raw;
#X obj 227 150 print map;
#X obj 223 115 mapper 38 42;
#X msg 218 73 38 2;
#X msg 266 76 38 0;
#X msg 326 76 set 39 4;
#X msg 330 99 change 0 38;
#X obj 55 160 ticker;
#X obj 65 221 bng 19 250 50 0 empty empty empty 0 -10 0 12 #fcfcfc #000000 #000000;
#X msg 8 61 debug_info;
#X msg 61 89 reset;
#X obj 117 219 bng 19 250 50 0 empty empty empty 0 -10 0 12 #fcfcfc #000000 #000000;
#X msg 42 108 2000 \, start;
#X obj 196 374 noteout;
#X obj 165 289 del 100;
#X msg 189 339 1;
#X msg 222 338 0;
#X obj 154 315 t b b;
#X obj 201 312 t b b;
#X msg 149 348 39;
#X connect 0 0 1 0;
#X connect 0 1 1 1;
#X connect 1 0 4 0;
#X connect 1 0 2 0;
#X connect 4 0 3 0;
#X connect 4 1 3 0;
#X connect 5 0 4 0;
#X connect 6 0 4 0;
#X connect 7 0 4 0;
#X connect 8 0 4 0;
#X connect 9 0 10 0;
#X connect 9 1 13 0;
#X connect 11 0 9 0;
#X connect 12 0 9 0;
#X connect 13 0 16 0;
#X connect 13 0 19 0;
#X connect 14 0 9 0;
#X connect 16 0 20 0;
#X connect 17 0 15 1;
#X connect 18 0 15 1;
#X connect 19 0 21 0;
#X connect 19 1 17 0;
#X connect 20 0 21 0;
#X connect 20 1 18 0;
#X connect 21 0 15 0;
