#N canvas 925 315 515 443 12;
#X msg 15 147 deactivate;
#X msg 7 123 activate;
#X floatatom 202 185 5 0 0 0 - - -, f 5;
#X obj 104 190 bank 1, f 8;
#X obj 274 186 bank 2, f 8;
#X msg 358 124 deactivate;
#X msg 350 100 activate;
#X msg 216 -15 q_launch;
#X msg 285 -17 q_stop;
#X msg 63 11 t_start, f 9;
#X msg 342 -15 get_pos;
#X obj 218 343 bng 15 250 50 0 empty empty empty 17 7 0 10 -262144
-1 -1;
#X msg 165 -15 clear;
#X obj 200 410 dac~;
#X obj 218 370 plonk~ 1200;
#X obj 131 343 bng 15 250 50 0 empty empty empty 17 7 0 10 -262144
-1 -1;
#X obj 318 340 bng 15 250 50 0 empty empty empty 17 7 0 10 -262144
-1 -1;
#X obj 131 369 plonk~ 500;
#X obj 308 370 plonk~ 600;
#X obj 180 141 adc~;
#X obj 116 281 unpack f f;
#X obj 150 225 unpack f f f f;
#X obj 309 222 unpack f f f f;
#X obj 284 282 unpack f f;
#X floatatom 314 257 5 0 0 0 - - -, f 5;
#X floatatom 356 258 5 0 0 0 - - -, f 5;
#X floatatom 401 260 5 0 0 0 - - -, f 5;
#X obj 447 264 bng 15 250 50 0 empty empty empty 17 7 0 10 -262144
-1 -1;
#X connect 0 0 3 0;
#X connect 1 0 3 0;
#X connect 2 0 3 1;
#X connect 2 0 4 1;
#X connect 3 0 13 0;
#X connect 3 1 20 0;
#X connect 3 2 21 0;
#X connect 4 0 13 1;
#X connect 4 1 23 0;
#X connect 4 2 22 0;
#X connect 5 0 4 0;
#X connect 6 0 4 0;
#X connect 7 0 3 0;
#X connect 7 0 4 0;
#X connect 8 0 3 0;
#X connect 8 0 4 0;
#X connect 9 0 3 0;
#X connect 9 0 4 0;
#X connect 10 0 3 0;
#X connect 10 0 4 0;
#X connect 11 0 14 0;
#X connect 12 0 3 0;
#X connect 12 0 4 0;
#X connect 14 0 13 0;
#X connect 14 0 13 1;
#X connect 15 0 17 0;
#X connect 16 0 18 0;
#X connect 17 0 13 0;
#X connect 18 0 13 1;
#X connect 19 0 3 0;
#X connect 19 0 4 0;
#X connect 20 0 11 0;
#X connect 20 1 15 0;
#X connect 21 3 2 0;
#X connect 22 0 24 0;
#X connect 22 1 25 0;
#X connect 22 2 26 0;
#X connect 22 2 27 0;
#X connect 22 3 2 0;
#X connect 23 1 16 0;
