#N canvas 621 255 450 300 12;
#X obj 143 227 dac~;
#X obj 99 91 osc~ 2;
#X obj 104 114 *~ 40;
#X obj 106 140 +~ 400;
#X obj 124 173 osc~;
#X obj 171 114 *~ 40;
#X obj 173 140 +~ 400;
#X obj 191 173 osc~;
#X obj 166 91 osc~ 0.4;
#X connect 1 0 2 0;
#X connect 2 0 3 0;
#X connect 3 0 4 0;
#X connect 4 0 0 0;
#X connect 5 0 6 0;
#X connect 6 0 7 0;
#X connect 7 0 0 1;
#X connect 8 0 5 0;
