#N canvas 621 255 450 300 12;
#X obj 143 227 dac~;
#X obj 99 91 osc~ 2;
#X obj 104 114 *~ 40;
#X obj 106 140 +~ 400;
#X obj 124 173 osc~;
#X obj 205 133 metro 1000;
#X msg 203 109 bang;
#X obj 202 85 loadbang;
#X obj 219 180 plonk~ 2000;
#X connect 1 0 2 0;
#X connect 2 0 3 0;
#X connect 3 0 4 0;
#X connect 4 0 0 0;
#X connect 5 0 8 0;
#X connect 6 0 5 0;
#X connect 7 0 6 0;
#X connect 8 0 0 1;
