#N canvas 700 348 555 429 12;
#X floatatom 88 166 4 0 0 0 - - - 0;
#X msg 53 15 1;
#X msg 21 64 0;
#X floatatom 81 66 5 0 0 0 - - - 0;
#X obj 77 40 t b f;
#X obj 20 41 del 500;
#X floatatom 13 221 5 0 0 0 - - - 0;
#X floatatom 53 221 5 0 0 0 - - - 0;
#X floatatom 92 222 5 0 0 0 - - - 0;
#X msg 169 109 clean;
#X obj 25 138 bank~ 1, f 9;
#X obj 20 88 i;
#X floatatom 292 185 4 0 0 0 - - - 0;
#X msg 300 14 1;
#X msg 268 63 0;
#X floatatom 328 65 5 0 0 0 - - - 0;
#X obj 324 39 t b f;
#X obj 267 40 del 500;
#X obj 267 87 i;
#X obj 271 157 bank~ 2, f 9;
#X obj 209 275 ticker;
#X floatatom 264 310 4 0 0 0 - - - 0;
#X msg 208 233 \$1 \, start;
#X msg 227 254 reset;
#X msg 376 33 \; pd dsp 1;
#X obj 376 9 loadbang;
#X obj 173 309 bng 19 51 50 0 empty empty empty 0 -10 0 12 #fcfcfc #000000 #000000;
#X obj 195 309 bng 19 51 50 0 empty empty empty 0 -10 0 12 #fcfcfc #000000 #000000;
#X obj 217 309 bng 19 51 50 0 empty empty empty 0 -10 0 12 #fcfcfc #000000 #000000;
#X obj 239 309 bng 19 51 50 0 empty empty empty 0 -10 0 12 #fcfcfc #000000 #000000;
#X msg 169 84 dbg;
#X obj 146 336 plonk~ 1500;
#X obj 156 363 dac~;
#X obj 248 364 dac~;
#X obj 238 337 plonk~ 1000;
#X msg 169 59 debug_info;
#X msg 452 89 quan_beats 24;
#X msg 454 40 quan_beats 6;
#X obj 22 242 unpack f f f;
#X floatatom 10 266 5 0 0 0 - - - 0;
#X floatatom 50 266 5 0 0 0 - - - 0;
#X floatatom 86 266 5 0 0 0 - - - 0;
#X obj 30 194 unpack f f f;
#X msg 453 14 quan_beats 4;
#X msg 168 33 loop_ratio 0;
#X obj 77 295 *;
#X floatatom 107 295 5 0 0 0 - - - 0;
#X msg 454 63 quan_beats 16;
#X obj 10 295 pack f f;
#X obj 175 142 list;
#X floatatom 344 219 5 0 0 0 - - - 0;
#X floatatom 384 219 5 0 0 0 - - - 0;
#X floatatom 423 220 5 0 0 0 - - - 0;
#X obj 353 240 unpack f f f;
#X floatatom 341 264 5 0 0 0 - - - 0;
#X floatatom 381 264 5 0 0 0 - - - 0;
#X floatatom 417 264 5 0 0 0 - - - 0;
#X obj 361 192 unpack f f f;
#X obj 408 293 *;
#X floatatom 438 293 5 0 0 0 - - - 0;
#X obj 341 293 pack f f;
#X connect 1 0 4 0;
#X connect 2 0 3 0;
#X connect 3 0 11 0;
#X connect 4 0 5 0;
#X connect 4 1 3 0;
#X connect 5 0 2 0;
#X connect 9 0 10 0;
#X connect 9 0 19 0;
#X connect 9 0 23 0;
#X connect 10 1 0 0;
#X connect 10 2 42 0;
#X connect 10 3 38 0;
#X connect 11 0 10 1;
#X connect 13 0 16 0;
#X connect 14 0 15 0;
#X connect 15 0 18 0;
#X connect 16 0 17 0;
#X connect 16 1 15 0;
#X connect 17 0 14 0;
#X connect 18 0 19 1;
#X connect 19 1 12 0;
#X connect 19 2 57 0;
#X connect 19 3 53 0;
#X connect 20 0 21 0;
#X connect 20 1 26 0;
#X connect 20 2 27 0;
#X connect 20 3 28 0;
#X connect 20 4 29 0;
#X connect 22 0 20 0;
#X connect 23 0 20 0;
#X connect 25 0 24 0;
#X connect 26 0 31 0;
#X connect 27 0 34 0;
#X connect 28 0 34 0;
#X connect 29 0 34 0;
#X connect 30 0 10 0;
#X connect 30 0 19 0;
#X connect 30 0 20 0;
#X connect 31 0 32 0;
#X connect 31 0 32 1;
#X connect 34 0 33 0;
#X connect 34 0 33 1;
#X connect 35 0 10 0;
#X connect 35 0 19 0;
#X connect 36 0 19 0;
#X connect 36 0 10 0;
#X connect 37 0 19 0;
#X connect 38 0 39 0;
#X connect 38 0 48 0;
#X connect 38 1 40 0;
#X connect 38 1 48 1;
#X connect 38 2 41 0;
#X connect 39 0 45 0;
#X connect 40 0 45 1;
#X connect 42 0 6 0;
#X connect 42 1 7 0;
#X connect 42 2 8 0;
#X connect 43 0 19 0;
#X connect 44 0 10 0;
#X connect 44 0 19 0;
#X connect 45 0 46 0;
#X connect 46 0 22 0;
#X connect 47 0 19 0;
#X connect 48 0 49 0;
#X connect 49 0 19 3;
#X connect 49 0 10 3;
#X connect 53 0 54 0;
#X connect 53 0 60 0;
#X connect 53 1 55 0;
#X connect 53 1 60 1;
#X connect 53 2 56 0;
#X connect 54 0 58 0;
#X connect 55 0 58 1;
#X connect 57 0 50 0;
#X connect 57 1 51 0;
#X connect 57 2 52 0;
#X connect 58 0 59 0;
#X connect 60 0 49 0;
