#N canvas 458 351 613 429 12;
#X floatatom 10 193 4 0 0 0 - - - 0;
#X floatatom 13 221 5 0 0 0 - - - 0;
#X floatatom 53 221 5 0 0 0 - - - 0;
#X floatatom 92 222 5 0 0 0 - - - 0;
#X msg 196 195 clean;
#X obj 31 162 bank~ 1, f 9;
#X floatatom 323 191 4 0 0 0 - - - 0;
#X obj 371 163 bank~ 2, f 9;
#X obj 193 276 ticker, f 10;
#X floatatom 264 310 4 0 0 0 - - - 0;
#X msg 208 233 \$1 \, start;
#X msg 227 254 reset;
#X msg 521 241 \; pd dsp 1;
#X obj 521 217 loadbang;
#X obj 173 309 bng 19 51 50 0 empty empty empty 0 -10 0 12 #fcfcfc #000000 #000000;
#X obj 195 309 bng 19 51 50 0 empty empty empty 0 -10 0 12 #fcfcfc #000000 #000000;
#X obj 217 309 bng 19 51 50 0 empty empty empty 0 -10 0 12 #fcfcfc #000000 #000000;
#X obj 239 309 bng 19 51 50 0 empty empty empty 0 -10 0 12 #fcfcfc #000000 #000000;
#X msg 245 195 dbg;
#X obj 146 336 plonk~ 1500;
#X obj 219 407 dac~;
#X obj 238 337 plonk~ 1000;
#X obj 22 242 unpack f f f;
#X floatatom 10 266 5 0 0 0 - - - 0;
#X floatatom 50 266 5 0 0 0 - - - 0;
#X floatatom 86 266 5 0 0 0 - - - 0;
#X obj 47 194 unpack f f f;
#X obj 77 295 *;
#X floatatom 107 295 5 0 0 0 - - - 0;
#X obj 10 295 pack f f;
#X obj 151 130 list;
#X floatatom 344 219 5 0 0 0 - - - 0;
#X floatatom 384 219 5 0 0 0 - - - 0;
#X floatatom 423 220 5 0 0 0 - - - 0;
#X obj 353 240 unpack f f f;
#X floatatom 341 264 5 0 0 0 - - - 0;
#X floatatom 381 264 5 0 0 0 - - - 0;
#X floatatom 417 264 5 0 0 0 - - - 0;
#X obj 361 192 unpack f f f;
#X obj 408 293 *;
#X floatatom 438 293 5 0 0 0 - - - 0;
#X obj 341 293 pack f f;
#X obj 206 379 *~ 1;
#X obj 111 29 adc~;
#X obj 112 58 *~ 1;
#X obj 195 131 unpack f f;
#X floatatom 195 158 5 0 0 0 - - - 0;
#X floatatom 237 158 5 0 0 0 - - - 0;
#X obj 371 65 sel 1;
#X obj 371 87 bng 19 250 50 0 empty empty empty 0 -10 0 12 #fcfcfc #000000 #000000;
#X text 170 108 tickLen / tickPerBar;
#N canvas 364 145 420 531 div_selector 0;
#X obj 29 72 i;
#X floatatom 29 121 5 0 0 0 - - - 0;
#X floatatom 120 101 5 0 0 0 - - - 0;
#X obj 29 98 + 1;
#X obj 29 39 inlet;
#X obj 78 38 bng 19 250 50 0 empty empty empty 0 -10 0 12 #fcfcfc #000000 #000000;
#X obj 70 70 + 1;
#X obj 200 124 route 24 16 8 4 2 1;
#X msg 320 45 16;
#X obj 241 35 inlet;
#X obj 71 97 mod 6;
#X floatatom 11 370 5 0 0 0 - - - 0;
#X floatatom 50 371 5 0 0 0 - - - 0;
#X floatatom 88 371 5 0 0 0 - - - 0;
#X floatatom 126 371 5 0 0 0 - - - 0;
#X floatatom 164 371 5 0 0 0 - - - 0;
#X floatatom 240 60 5 0 0 0 - - - 0;
#X msg 356 49 8;
#X msg 103 471 quan_beats \$1;
#X obj 103 496 outlet, f 7;
#X obj 40 337 unpack f f f f f f;
#X floatatom 202 371 5 0 0 0 - - - 0;
#X msg 144 173 5 24 12 6 48 96;
#X obj 170 496 print div;
#X obj 29 146 sel 1 2 3 4 5;
#X msg 159 197 5 16 8 4 32 64;
#X msg 181 219 5 8 4 2 16 32;
#X floatatom 105 404 5 0 0 0 - - - 0;
#X obj 291 497 outlet;
#X obj 291 450 /;
#X floatatom 291 475 5 0 0 0 - - - 0;
#X obj 135 37 loadbang;
#X msg 136 59 0;
#X msg 200 244 5 4 2 1 8 16;
#X msg 210 267 4 2 1 4 8;
#X msg 221 290 3 1 2 4;
#X obj 240 84 t b f f b;
#X obj 120 445 spigot;
#X msg 197 413 0;
#X msg 166 413 1;
#X connect 0 0 3 0;
#X connect 0 0 6 0;
#X connect 1 0 24 0;
#X connect 3 0 1 0;
#X connect 4 0 0 0;
#X connect 5 0 0 0;
#X connect 6 0 10 0;
#X connect 7 0 22 0;
#X connect 7 1 25 0;
#X connect 7 2 26 0;
#X connect 7 3 33 0;
#X connect 7 4 34 0;
#X connect 7 5 35 0;
#X connect 8 0 16 0;
#X connect 9 0 16 0;
#X connect 10 0 0 1;
#X connect 11 0 10 1;
#X connect 11 0 27 0;
#X connect 12 0 27 0;
#X connect 13 0 27 0;
#X connect 14 0 27 0;
#X connect 15 0 27 0;
#X connect 16 0 36 0;
#X connect 17 0 16 0;
#X connect 18 0 19 0;
#X connect 18 0 23 0;
#X connect 20 0 11 0;
#X connect 20 1 12 0;
#X connect 20 2 13 0;
#X connect 20 3 14 0;
#X connect 20 4 15 0;
#X connect 20 5 21 0;
#X connect 21 0 27 0;
#X connect 22 0 20 0;
#X connect 24 0 12 0;
#X connect 24 1 13 0;
#X connect 24 2 14 0;
#X connect 24 3 15 0;
#X connect 24 4 21 0;
#X connect 25 0 20 0;
#X connect 26 0 20 0;
#X connect 27 0 37 0;
#X connect 29 0 30 0;
#X connect 30 0 28 0;
#X connect 31 0 32 0;
#X connect 32 0 0 0;
#X connect 33 0 20 0;
#X connect 34 0 20 0;
#X connect 35 0 20 0;
#X connect 36 0 39 0;
#X connect 36 0 32 0;
#X connect 36 1 27 0;
#X connect 36 2 29 1;
#X connect 36 2 7 0;
#X connect 36 3 38 0;
#X connect 37 0 18 0;
#X connect 37 0 29 0;
#X connect 38 0 37 1;
#X connect 39 0 37 1;
#X restore 371 109 pd div_selector;
#X obj 199 18 notein;
#X obj 197 50 pack f f;
#X obj 288 365 tgl 19 0 empty empty empty 0 -10 0 12 #fcfcfc #000000 #000000 0 1;
#X obj 24 402 writesf~;
#X msg 26 375 open sesh0.wav;
#X msg 14 349 start;
#X msg 63 348 stop;
#X msg 55 123 delete;
#X msg 391 135 delete;
#X obj 197 77 mapper 35 36 39 44 40 41;
#N canvas 39 493 1358 280 displays 0;
#X obj 374 270 oled 5;
#X obj 103 256 midiout;
#X msg 426 270 upload status_icons.txt;
#X obj 209 98 loadbang;
#X obj -1 43 inlet;
#X obj 40 43 inlet;
#X obj 163 43 inlet;
#X obj 205 43 inlet;
#X obj 537 9 inlet;
#X obj 207 255 oled 4;
#X msg 207 173 clear \, xor 1 \, box 0 0 64 64 1 \, S 3 \, s 0 0 DEL \, s 0 24 ALL \, s 0 64 QB: \, s 0 96 \$1 \, send, f 18;
#X obj 600 269 loadbang;
#X obj 990 -3 inlet;
#X obj 988 22 snapshot~;
#X floatatom 949 23 5 0 0 0 - - - 0;
#X obj 367 109 * 100;
#X obj 410 110 == 1;
#X obj 639 106 == 0.5;
#X obj 904 107 == 0.25;
#X obj 367 134 spigot;
#X obj 640 132 spigot;
#X obj 693 108 * 100;
#X obj 693 131 % 50;
#X obj 908 132 spigot;
#X obj 961 108 * 100;
#X obj 961 131 % 25;
#X obj 1001 131 pack f f f;
#X obj 1003 59 * 4;
#X obj 1004 84 i;
#X obj 1039 60 * 25;
#X obj 1040 83 + 10;
#X obj 759 104 i;
#X obj 795 103 + 10;
#X obj 733 131 pack f f f;
#X obj 758 79 * 2;
#X obj 794 80 * 50;
#X obj 1188 136 spigot;
#X obj 1238 134 == 2;
#X obj 1318 19 i;
#X floatatom 1403 47 2 0 0 0 - - - 0;
#X obj 1347 19 + 1;
#X obj 1377 19 mod 4;
#X obj 1268 17 inlet;
#X obj 1321 47 mod 2;
#X floatatom 1364 47 2 0 0 0 - - - 0;
#X obj 1272 106 * 50;
#X obj 1310 83 * 50;
#X obj 1310 107 + 10;
#X obj 1272 132 pack f f f;
#X obj 1351 83 +;
#X obj 1355 107 / 2;
#X obj 1355 132 * 100;
#X obj 1422 139 spigot;
#X obj 1544 110 + 10;
#X obj 1506 135 pack f f f;
#X obj 1585 86 +;
#X obj 1589 135 * 100;
#X msg 1188 160 clear \, S 1 \, s 0 0 QUANTIZE: 2 Bars \, s 0 16 Bar: \, box 10 24 100 8 0 \, box \$2 24 \$1 8 1 \, box 10 60 \$3 4 1 \, l 10 34 10 46 \, l 60 16 60 46 \, glyph 10 48 7 9 14 1 28 \, send, f 27;
#X msg 905 157 clear \, S 1 \, s 0 0 QUANTIZE: 1 Bar (1b) \, s 0 16 Bar: \, box 10 24 100 8 0 \, box 10 24 \$1 8 1 \, box \$3 60 \$2 4 1 \, l 10 34 10 46 \, l 35 34 35 46 \, l 60 34 60 46 \, l 85 34 85 46 \, glyph 10 48 7 9 14 1 28 \, glyph 35 48 7 9 14 1 28 \, glyph 60 48 7 9 14 1 28 \, glyph 85 48 7 9 14 1 28 \, send, f 35;
#X msg 637 157 clear \, S 1 \, s 0 0 QUANTIZE: 1 Bar (2b) \, s 0 16 Bar: \, box 10 24 100 8 0 \, box 10 24 \$1 8 1 \, box \$3 60 \$2 4 1 \, l 10 34 10 46 \, l 35 34 35 46 \, l 60 34 60 46 \, l 85 34 85 46 \, glyph 10 48 7 9 14 1 28 \, glyph 60 48 7 9 14 1 28 \, send, f 35;
#X msg 367 158 clear \, S 1 \, s 0 0 QUANTIZE: 1 Bar (4b) \, s 0 16 Bar: \, box 10 24 100 8 0 \, box 10 24 \$1 8 1 \, box 10 60 \$1 4 1 \, l 10 34 10 46 \, l 35 34 35 46 \, l 60 34 60 46 \, l 85 34 85 46 \, glyph 10 48 7 9 14 1 28 \, send, f 35;
#X obj 1506 109 * 25;
#X obj 1544 86 * 25;
#X obj 1472 137 == 4;
#X obj 1589 110 / 4;
#X msg 1422 163 clear \, S 1 \, s 0 0 QUANTIZE: 4 Bars \, s 0 16 Bar: \, box 10 24 100 8 0 \, box \$2 24 \$1 8 1 \, box 10 60 \$3 4 1 \, l 10 34 10 46 \, l 35 16 35 46 \, l 60 16 60 46 \, l 85 16 85 46 \, glyph 10 48 7 9 14 1 28 \, send, f 27;
#X obj 333 50 loadbang;
#X msg 334 75 0;
#X msg 106 101 -1;
#X obj 218 122 del 100;
#X obj 87 25 inlet;
#X obj 249 22 inlet;
#X obj 8 167 bank_oled 0;
#X obj 102 167 bank_oled 1;
#X obj 128 26 inlet;
#X obj 290 22 inlet;
#X obj 90 51 snapshot~;
#X obj 260 52 snapshot~;
#X obj 1459 4 inlet;
#X obj 1459 29 s snap;
#X obj 1068 11 r snap;
#X obj 358 18 r snap;
#X obj 91 76 * 45;
#X obj 260 74 * 45;
#X connect 0 0 1 0;
#X connect 2 0 0 0;
#X connect 3 0 10 0;
#X connect 3 0 69 0;
#X connect 4 0 72 0;
#X connect 5 0 72 1;
#X connect 6 0 73 0;
#X connect 7 0 73 1;
#X connect 8 0 10 0;
#X connect 8 0 16 0;
#X connect 8 0 17 0;
#X connect 8 0 18 0;
#X connect 8 0 37 0;
#X connect 8 0 63 0;
#X connect 9 0 1 0;
#X connect 10 0 9 0;
#X connect 11 0 2 0;
#X connect 12 0 13 0;
#X connect 13 0 14 0;
#X connect 14 0 15 0;
#X connect 14 0 21 0;
#X connect 14 0 24 0;
#X connect 14 0 27 0;
#X connect 14 0 34 0;
#X connect 14 0 45 0;
#X connect 14 0 49 0;
#X connect 14 0 61 0;
#X connect 14 0 55 0;
#X connect 15 0 19 0;
#X connect 16 0 19 1;
#X connect 17 0 20 1;
#X connect 18 0 23 1;
#X connect 19 0 60 0;
#X connect 20 0 59 0;
#X connect 21 0 22 0;
#X connect 21 0 33 0;
#X connect 22 0 33 1;
#X connect 23 0 58 0;
#X connect 24 0 25 0;
#X connect 24 0 26 0;
#X connect 25 0 26 1;
#X connect 26 0 23 0;
#X connect 27 0 28 0;
#X connect 28 0 29 0;
#X connect 29 0 30 0;
#X connect 30 0 26 2;
#X connect 31 0 35 0;
#X connect 32 0 33 2;
#X connect 33 0 20 0;
#X connect 34 0 31 0;
#X connect 35 0 32 0;
#X connect 36 0 57 0;
#X connect 37 0 36 1;
#X connect 38 0 40 0;
#X connect 38 0 39 0;
#X connect 38 0 43 0;
#X connect 39 0 55 1;
#X connect 39 0 62 0;
#X connect 40 0 41 0;
#X connect 41 0 38 1;
#X connect 42 0 38 0;
#X connect 43 0 44 0;
#X connect 44 0 46 0;
#X connect 44 0 49 1;
#X connect 45 0 48 0;
#X connect 46 0 47 0;
#X connect 47 0 48 1;
#X connect 48 0 36 0;
#X connect 49 0 50 0;
#X connect 50 0 51 0;
#X connect 51 0 48 2;
#X connect 52 0 65 0;
#X connect 53 0 54 1;
#X connect 54 0 52 0;
#X connect 55 0 64 0;
#X connect 56 0 54 2;
#X connect 57 0 0 0;
#X connect 58 0 0 0;
#X connect 59 0 0 0;
#X connect 60 0 0 0;
#X connect 61 0 54 0;
#X connect 62 0 53 0;
#X connect 63 0 52 1;
#X connect 64 0 56 0;
#X connect 65 0 0 0;
#X connect 66 0 67 0;
#X connect 67 0 60 0;
#X connect 68 0 72 1;
#X connect 68 0 72 0;
#X connect 68 0 73 1;
#X connect 68 0 73 0;
#X connect 69 0 68 0;
#X connect 70 0 72 3;
#X connect 71 0 73 3;
#X connect 72 0 1 0;
#X connect 73 0 1 0;
#X connect 74 0 76 0;
#X connect 75 0 77 0;
#X connect 76 0 82 0;
#X connect 77 0 83 0;
#X connect 78 0 79 0;
#X connect 80 0 13 0;
#X connect 81 0 77 0;
#X connect 81 0 76 0;
#X connect 82 0 72 4;
#X connect 83 0 73 4;
#X restore 334 400 pd displays;
#X f 22;
#X obj 253 365 *~ 0;
#X obj 365 345 /;
#X obj 398 344 /;
#X floatatom 378 318 5 0 0 0 - - - 0;
#X obj 336 318 t b f;
#X obj 19 40 del 100;
#X floatatom 20 89 5 0 0 0 - - - 0;
#X msg 19 64 1;
#X msg 53 64 0;
#X obj 18 15 bng 19 250 50 0 empty empty empty 0 -10 0 12 #fcfcfc #000000 #000000;
#X obj 430 29 del 100;
#X floatatom 431 78 5 0 0 0 - - - 0;
#X msg 430 53 1;
#X msg 464 53 0;
#X obj 429 4 bng 19 250 50 0 empty empty empty 0 -10 0 12 #fcfcfc #000000 #000000;
#X obj 305 293 *;
#X msg 438 334 0;
#X obj 491 368 metro 100;
#X msg 493 346 bang;
#X obj 531 344 loadbang;
#X connect 0 0 62 3;
#X connect 2 0 62 1;
#X connect 3 0 62 0;
#X connect 4 0 5 0;
#X connect 4 0 7 0;
#X connect 4 0 11 0;
#X connect 4 0 79 0;
#X connect 5 0 42 0;
#X connect 5 1 0 0;
#X connect 5 2 26 0;
#X connect 5 3 22 0;
#X connect 6 0 62 7;
#X connect 7 0 42 0;
#X connect 7 1 6 0;
#X connect 7 2 38 0;
#X connect 7 3 34 0;
#X connect 8 0 9 0;
#X connect 8 1 14 0;
#X connect 8 2 15 0;
#X connect 8 3 16 0;
#X connect 8 4 17 0;
#X connect 9 0 62 9;
#X connect 10 0 8 0;
#X connect 11 0 8 0;
#X connect 13 0 12 0;
#X connect 14 0 19 0;
#X connect 14 0 62 10;
#X connect 15 0 21 0;
#X connect 16 0 21 0;
#X connect 17 0 21 0;
#X connect 18 0 5 0;
#X connect 18 0 7 0;
#X connect 18 0 8 0;
#X connect 19 0 63 0;
#X connect 21 0 63 0;
#X connect 22 0 23 0;
#X connect 22 0 29 0;
#X connect 22 1 24 0;
#X connect 22 1 29 1;
#X connect 22 2 25 0;
#X connect 23 0 27 0;
#X connect 24 0 27 1;
#X connect 25 0 64 0;
#X connect 26 0 1 0;
#X connect 26 1 2 0;
#X connect 26 2 3 0;
#X connect 27 0 28 0;
#X connect 28 0 10 0;
#X connect 29 0 30 0;
#X connect 30 0 7 3;
#X connect 30 0 5 3;
#X connect 30 0 45 0;
#X connect 32 0 62 5;
#X connect 33 0 62 4;
#X connect 34 0 35 0;
#X connect 34 0 41 0;
#X connect 34 1 36 0;
#X connect 34 1 41 1;
#X connect 34 2 37 0;
#X connect 35 0 39 0;
#X connect 36 0 39 1;
#X connect 37 0 65 0;
#X connect 38 0 31 0;
#X connect 38 1 32 0;
#X connect 38 2 33 0;
#X connect 39 0 40 0;
#X connect 41 0 30 0;
#X connect 42 0 20 0;
#X connect 42 0 20 1;
#X connect 42 0 55 0;
#X connect 43 0 44 0;
#X connect 43 1 44 0;
#X connect 44 0 5 0;
#X connect 44 0 7 0;
#X connect 44 0 55 0;
#X connect 45 0 46 0;
#X connect 45 1 47 0;
#X connect 46 0 78 0;
#X connect 47 0 51 1;
#X connect 47 0 78 1;
#X connect 48 0 49 0;
#X connect 49 0 51 0;
#X connect 51 0 7 0;
#X connect 51 0 5 0;
#X connect 51 1 62 8;
#X connect 52 0 53 0;
#X connect 52 1 53 1;
#X connect 53 0 61 0;
#X connect 54 0 63 1;
#X connect 56 0 55 0;
#X connect 57 0 55 0;
#X connect 58 0 55 0;
#X connect 59 0 5 0;
#X connect 60 0 7 0;
#X connect 61 0 5 1;
#X connect 61 1 7 1;
#X connect 61 2 48 0;
#X connect 61 3 4 0;
#X connect 61 4 59 0;
#X connect 61 5 60 0;
#X connect 63 0 20 0;
#X connect 63 0 20 1;
#X connect 64 0 62 2;
#X connect 65 0 62 6;
#X connect 66 0 64 1;
#X connect 66 0 65 1;
#X connect 67 0 64 0;
#X connect 67 0 65 0;
#X connect 67 1 66 0;
#X connect 68 0 71 0;
#X connect 69 0 5 1;
#X connect 70 0 69 0;
#X connect 71 0 69 0;
#X connect 72 0 68 0;
#X connect 72 0 70 0;
#X connect 73 0 76 0;
#X connect 74 0 7 1;
#X connect 75 0 74 0;
#X connect 76 0 74 0;
#X connect 77 0 73 0;
#X connect 77 0 75 0;
#X connect 78 0 67 0;
#X connect 79 0 62 6;
#X connect 79 0 62 2;
#X connect 80 0 62 11;
#X connect 81 0 80 0;
#X connect 82 0 80 0;
