#N canvas 632 344 585 395 12;
#X obj 13 60 mapper 35 36 37 38 39;
#X obj 14 7 notein;
#X obj 11 30 pack f f;
#X obj 177 61 mapper 40 41 42 43 44;
#X obj 378 61 mapper 45;
#X obj 462 3 ctlin;
#X floatatom 461 26 5 0 0 0 - - - 0;
#X floatatom 507 25 5 0 0 0 - - - 0;
#X obj 18 293 oled 5;
#X obj 18 321 midiout;
#X floatatom 47 108 5 0 0 0 - - - 0;
#X floatatom 7 110 5 0 0 0 - - - 0;
#X floatatom 89 110 5 0 0 0 - - - 0;
#X floatatom 128 111 5 0 0 0 - - - 0;
#X floatatom 166 110 5 0 0 0 - - - 0;
#X floatatom 205 110 5 0 0 0 - - - 0;
#X floatatom 244 111 5 0 0 0 - - - 0;
#X floatatom 283 112 5 0 0 0 - - - 0;
#X floatatom 319 113 5 0 0 0 - - - 0;
#X floatatom 356 114 5 0 0 0 - - - 0;
#X obj 43 148 bang;
#X floatatom 404 113 5 0 0 0 - - - 0;
#X obj 462 174 i;
#X floatatom 462 197 5 0 0 0 - - - 0;
#X msg 464 147 0;
#X obj 498 174 + 1;
#X obj 427 146 bang;
#X obj 464 123 loadbang;
#X obj 236 296 loadbang;
#X msg 105 296 upload arrows.txt;
#X obj 104 321 print;
#X obj 505 49 == 65;
#X obj 462 49 == 63;
#X msg 491 97 0;
#X msg 530 97 4;
#X floatatom 531 122 5 0 0 0 - - - 0;
#X obj 461 73 sel 1;
#X obj 508 74 sel 1;
#X obj 122 170 pack f f f f f f f f f f f f f f;
#X obj 527 140 t b f;
#X obj 535 219 i;
#X floatatom 535 242 5 0 0 0 - - - 0;
#X msg 537 192 0;
#X obj 571 219 + 1;
#X obj 537 168 loadbang;
#X obj 177 340 print;
#X msg 16 201 clear \, box 0 0 8 8 \$6 \, box 10 0 8 8 \$7 \, box 20 0 8 8 \$8 \, box 30 0 8 8 \$9 \, box 40 0 8 8 \$10 \, box 0 10 8 8 \$1 \, box 10 10 8 8 \$2 \, box 20 10 8 8 \$3 \, box 30 10 8 8 \$4 \, box 40 10 8 8 \$5 \, box 50 0 18 18 \$11 \, S 1 \, string 0 56 Self Test \, string 0 48 Changes: \$12 \, s 0 40 Turns: \$14 \, S 2 \, glyph \$13 1 5 70 0 6 9 \, send;
#X connect 0 0 11 0;
#X connect 0 1 10 0;
#X connect 0 2 12 0;
#X connect 0 3 13 0;
#X connect 0 4 14 0;
#X connect 1 0 2 0;
#X connect 1 1 2 1;
#X connect 2 0 0 0;
#X connect 2 0 3 0;
#X connect 2 0 4 0;
#X connect 3 0 15 0;
#X connect 3 1 16 0;
#X connect 3 2 17 0;
#X connect 3 3 18 0;
#X connect 3 4 19 0;
#X connect 4 0 21 0;
#X connect 5 0 6 0;
#X connect 5 1 7 0;
#X connect 6 0 31 0;
#X connect 6 0 32 0;
#X connect 8 0 9 0;
#X connect 8 0 45 0;
#X connect 8 1 30 0;
#X connect 10 0 20 0;
#X connect 10 0 38 1;
#X connect 11 0 20 0;
#X connect 11 0 38 0;
#X connect 12 0 20 0;
#X connect 12 0 38 2;
#X connect 13 0 20 0;
#X connect 13 0 38 3;
#X connect 14 0 20 0;
#X connect 14 0 38 4;
#X connect 15 0 20 0;
#X connect 15 0 38 5;
#X connect 16 0 20 0;
#X connect 16 0 38 6;
#X connect 17 0 20 0;
#X connect 17 0 38 7;
#X connect 18 0 20 0;
#X connect 18 0 38 8;
#X connect 19 0 20 0;
#X connect 19 0 38 9;
#X connect 20 0 38 0;
#X connect 20 0 26 0;
#X connect 21 0 20 0;
#X connect 21 0 38 10;
#X connect 22 0 23 0;
#X connect 22 0 25 0;
#X connect 23 0 38 11;
#X connect 24 0 22 0;
#X connect 25 0 22 1;
#X connect 26 0 22 0;
#X connect 27 0 24 0;
#X connect 28 0 29 0;
#X connect 29 0 8 0;
#X connect 31 0 37 0;
#X connect 32 0 36 0;
#X connect 33 0 35 0;
#X connect 34 0 35 0;
#X connect 35 0 39 0;
#X connect 36 0 33 0;
#X connect 37 0 34 0;
#X connect 38 0 46 0;
#X connect 39 0 38 0;
#X connect 39 0 40 0;
#X connect 39 1 38 12;
#X connect 40 0 41 0;
#X connect 40 0 43 0;
#X connect 41 0 38 13;
#X connect 42 0 40 0;
#X connect 43 0 40 1;
#X connect 44 0 42 0;
#X connect 46 0 8 0;
