#N canvas 132 638 434 310 12;
#X obj 61 127 midiout;
#X obj 144 251 noteout;
#X msg 136 223 0, f 5;
#X obj 137 200 bang;
#X floatatom 194 189 5 0 127 0 - - - 0;
#X msg 40 93 240 0 127 127 0 76 4 0 0 20 20 86 2 0 0 247;
#X text 40 70 send line with link to midi noteon 0 channel 0;
#X text 232 158 send param value to link0;
#X msg 192 219 0;
#X msg 120 127 144 0 \$1;
#X floatatom 194 162 5 0 127 0 - - - 0;
#X floatatom 279 276 5 0 0 0 - - - 0;
#X msg 297 218 clear;
#X floatatom 254 218 5 0 0 0 - - - 0;
#X floatatom 339 186 5 0 127 0 - - - 0;
#X obj 286 186 t f b;
#X obj 281 252 pipe 30;
#X connect 2 0 1 0;
#X connect 3 0 2 0;
#X connect 4 0 1 1;
#X connect 4 0 3 0;
#X connect 5 0 0 0;
#X connect 8 0 1 1;
#X connect 8 0 3 0;
#X connect 9 0 0 0;
#X connect 10 0 9 0;
#X connect 11 0 4 0;
#X connect 12 0 16 0;
#X connect 13 0 16 0;
#X connect 14 0 15 0;
#X connect 15 0 13 0;
#X connect 15 1 12 0;
#X connect 16 0 11 0;
